<svg xmlns="http://www.w3.org/2000/svg" width="119" height="37" viewBox="0 0 119 37">
    <g fill="none" fill-rule="evenodd">
        <path stroke="#9E9E9E" d="M116.669 31.406c0 1.933-1.502 3.499-3.36 3.499H3.364c-1.857 0-3.364-1.566-3.364-3.5v-27.9C0 1.57 1.507 0 3.364 0h109.944c1.859 0 3.36 1.571 3.36 3.504v27.902h0z" transform="translate(.884 1.327)"/>
        <path fill="#9E9E9E" fill-rule="nonzero" d="M25.195 17.2c-.026-2.989 2.402-4.442 2.513-4.51-1.375-2.043-3.507-2.323-4.256-2.344-1.79-.192-3.526 1.091-4.438 1.091-.93 0-2.334-1.072-3.847-1.04-1.947.03-3.77 1.18-4.769 2.962-2.061 3.638-.523 8.983 1.452 11.923.988 1.44 2.143 3.047 3.654 2.99 1.479-.062 2.03-.96 3.816-.96 1.768 0 2.287.96 3.828.925 1.588-.027 2.587-1.447 3.54-2.9 1.143-1.65 1.601-3.275 1.62-3.359-.038-.013-3.083-1.196-3.113-4.778M22.316 8.485c.796-1.013 1.34-2.392 1.189-3.791-1.151.052-2.59.81-3.42 1.802-.733.874-1.389 2.305-1.22 3.651 1.294.098 2.622-.664 3.451-1.662M41.536 23.153l-1.025-3.222c-.107-.329-.311-1.104-.61-2.324h-.037c-.12.525-.311 1.3-.574 2.324l-1.007 3.222h3.253zm3.54 5.145h-2.067l-1.132-3.624h-3.935l-1.078 3.624h-2.012l3.898-12.339h2.408l3.918 12.339zM53.529 23.37c0-.866-.191-1.58-.575-2.142-.42-.585-.982-.88-1.69-.88-.478 0-.913.164-1.302.487-.389.323-.644.747-.763 1.273-.06.244-.09.445-.09.602v1.484c0 .647.195 1.193.584 1.638.389.446.896.669 1.518.669.73 0 1.3-.288 1.707-.86.407-.575.61-1.331.61-2.271m1.977-.073c0 1.513-.4 2.71-1.204 3.587-.718.782-1.61 1.172-2.677 1.172-1.15 0-1.976-.42-2.479-1.263h-.036v4.686h-1.94v-9.592c0-.951-.025-1.928-.072-2.929h1.706l.108 1.41h.036c.647-1.062 1.629-1.592 2.947-1.592 1.03 0 1.89.414 2.579 1.244.688.83 1.032 1.923 1.032 3.277M63.89 23.37c0-.866-.192-1.58-.576-2.142-.42-.585-.98-.88-1.688-.88-.48 0-.914.164-1.303.487-.39.323-.643.747-.763 1.273-.06.244-.09.445-.09.602v1.484c0 .647.195 1.193.583 1.638.389.446.896.669 1.52.669.73 0 1.299-.288 1.706-.86.406-.575.611-1.331.611-2.271m1.977-.073c0 1.513-.403 2.71-1.205 3.587-.718.782-1.61 1.172-2.677 1.172-1.15 0-1.977-.42-2.48-1.263h-.035v4.686h-1.94v-9.592c0-.951-.025-1.928-.072-2.929h1.706l.109 1.41h.035c.647-1.062 1.628-1.592 2.947-1.592 1.03 0 1.889.414 2.579 1.244.688.83 1.033 1.923 1.033 3.277M76.274 25.021c0 1.05-.357 1.904-1.075 2.563-.79.72-1.888 1.08-3.299 1.08-1.302 0-2.348-.257-3.139-.769l.45-1.648c.852.526 1.786.788 2.805.788.73 0 1.3-.169 1.708-.504.407-.336.61-.787.61-1.348 0-.501-.167-.923-.504-1.266-.334-.342-.892-.66-1.67-.954-2.121-.806-3.18-1.985-3.18-3.538 0-1.014.372-1.846 1.114-2.494.741-.647 1.73-.972 2.965-.972 1.102 0 2.018.196 2.748.586l-.485 1.612c-.683-.379-1.455-.569-2.318-.569-.683 0-1.216.172-1.598.514-.323.305-.485.677-.485 1.116 0 .488.185.891.557 1.208.323.293.91.61 1.76.952 1.043.428 1.808.928 2.3 1.5.49.575.736 1.29.736 2.143M83.499 20.596H81.36v4.32c0 1.099.377 1.649 1.133 1.649.346 0 .635-.032.862-.092l.053 1.5c-.382.146-.885.22-1.509.22-.766 0-1.365-.238-1.796-.713-.43-.477-.647-1.276-.647-2.399v-4.485H78.18v-1.483h1.275v-1.63l1.904-.585v2.215H83.5v1.483zM90.372 23.397c0-.82-.172-1.524-.52-2.11-.409-.71-.99-1.066-1.743-1.066-.78 0-1.372.355-1.779 1.065-.348.587-.521 1.303-.521 2.148 0 .821.173 1.525.521 2.11.42.71 1.006 1.066 1.761 1.066.742 0 1.322-.362 1.742-1.083.36-.6.539-1.31.539-2.13m2.014-.064c0 1.367-.384 2.49-1.15 3.368-.804.904-1.87 1.354-3.2 1.354-1.282 0-2.302-.432-3.063-1.299-.76-.866-1.14-1.959-1.14-3.276 0-1.379.39-2.508 1.176-3.387.784-.879 1.842-1.317 3.171-1.317 1.282 0 2.313.432 3.09 1.3.744.841 1.116 1.927 1.116 3.257M98.867 20.697c-.192-.037-.397-.055-.612-.055-.683 0-1.21.263-1.582.788-.324.464-.485 1.05-.485 1.757v4.668H94.25l.017-6.096c0-1.025-.024-1.959-.072-2.8h1.69l.071 1.701h.053c.205-.585.528-1.056.971-1.409.431-.317.9-.475 1.402-.475.18 0 .342.012.486.036v1.885zM105.757 22.492c.012-.586-.114-1.093-.377-1.52-.336-.549-.852-.823-1.546-.823-.635 0-1.15.268-1.545.805-.323.428-.515.94-.574 1.538h4.042zm1.85.512c0 .354-.023.653-.071.897h-5.82c.022.879.303 1.55.843 2.014.49.415 1.126.622 1.904.622.861 0 1.648-.14 2.355-.421l.304 1.373c-.827.366-1.802.549-2.928.549-1.354 0-2.417-.405-3.19-1.218-.771-.81-1.159-1.9-1.159-3.267 0-1.342.359-2.46 1.079-3.35.754-.952 1.772-1.427 3.054-1.427 1.258 0 2.211.475 2.858 1.426.513.758.77 1.692.77 2.802zM40.62 8.591c0-.707-.184-1.25-.552-1.628-.369-.377-.905-.566-1.612-.566-.3 0-.556.021-.768.063v4.533c.118.017.333.026.645.026.73 0 1.293-.206 1.69-.62.397-.414.596-1.016.596-1.808m1.006-.027c0 1.092-.32 1.913-.962 2.465-.594.509-1.439.764-2.532.764-.543 0-1.008-.024-1.396-.072V5.758c.506-.084 1.053-.125 1.642-.125 1.042 0 1.828.23 2.357.692.593.521.891 1.268.891 2.24M45.6 8.842c0-.403-.086-.75-.256-1.037-.2-.35-.485-.523-.857-.523-.383 0-.674.174-.874.523-.17.288-.256.64-.256 1.055 0 .403.086.749.256 1.037.206.349.494.523.866.523.364 0 .65-.177.856-.532.176-.294.264-.643.264-1.046m.99-.031c0 .67-.189 1.222-.565 1.654-.395.444-.919.666-1.572.666-.63 0-1.131-.213-1.505-.639-.373-.425-.56-.962-.56-1.61 0-.677.192-1.231.578-1.663.385-.432.905-.648 1.557-.648.63 0 1.136.213 1.519.638.365.415.548.948.548 1.602M53.311 6.571l-1.342 4.371h-.873l-.557-1.898c-.14-.473-.255-.944-.344-1.411h-.017c-.083.48-.197.95-.345 1.411l-.591 1.898h-.883l-1.262-4.37h.98l.485 2.077c.117.492.215.959.292 1.403h.016c.071-.365.189-.83.354-1.394l.61-2.087h.775l.584 2.042c.14.498.256.977.344 1.439h.026c.065-.45.162-.929.292-1.439l.52-2.042h.936zM58.392 11.032h-.953V8.529c0-.772-.288-1.157-.865-1.157-.283 0-.512.105-.689.318-.175.212-.264.462-.264.75v2.592h-.954v-3.12c0-.385-.012-.801-.035-1.25h.838l.045.682h.026c.111-.212.277-.388.495-.527.258-.164.547-.246.864-.246.401 0 .734.132.998.396.33.324.494.806.494 1.448v2.617zM60.284 11.07L61.237 11.07 61.237 4.694 60.284 4.694zM66.321 8.842c0-.403-.085-.75-.256-1.037-.199-.35-.485-.523-.855-.523-.384 0-.675.174-.875.523-.17.288-.255.64-.255 1.055 0 .403.085.749.255 1.037.207.349.495.523.867.523.364 0 .648-.177.854-.532.178-.294.265-.643.265-1.046m.99-.031c0 .67-.188 1.222-.565 1.654-.395.444-.919.666-1.571.666-.631 0-1.133-.213-1.506-.639-.373-.425-.56-.962-.56-1.61 0-.677.193-1.231.578-1.663.385-.432.905-.648 1.557-.648.631 0 1.135.213 1.52.638.364.415.547.948.547 1.602M70.352 9.53v-.674c-1.052-.019-1.578.275-1.578.88 0 .229.06.4.183.513.123.115.278.171.466.171.21 0 .405-.067.582-.202.18-.134.29-.307.33-.516.012-.049.017-.106.017-.172m.99 1.502h-.857l-.071-.503h-.027c-.293.401-.71.602-1.253.602-.405 0-.732-.132-.979-.396-.224-.24-.336-.537-.336-.89 0-.534.219-.94.657-1.224.44-.28 1.057-.419 1.851-.413v-.08c0-.577-.297-.864-.89-.864-.424 0-.797.108-1.118.324l-.194-.64c.398-.25.89-.377 1.472-.377 1.12 0 1.682.603 1.682 1.808v1.61c0 .438.022.785.063 1.043M75.636 9.227v-.729c0-.126-.01-.228-.027-.306-.053-.234-.169-.43-.344-.589-.178-.158-.392-.238-.638-.238-.356 0-.636.144-.84.432-.202.287-.305.657-.305 1.105 0 .432.097.784.293 1.053.206.288.485.432.833.432.313 0 .564-.12.754-.36.183-.222.274-.489.274-.8m.988 1.843h-.846l-.045-.701h-.026c-.27.533-.73.8-1.377.8-.518 0-.947-.207-1.289-.62-.34-.414-.512-.95-.512-1.61 0-.708.185-1.28.556-1.718.36-.408.8-.612 1.324-.612.576 0 .98.199 1.21.594h.017v-2.51h.954v5.2c0 .425.011.817.034 1.177M84.22 8.842c0-.403-.086-.75-.256-1.037-.201-.35-.485-.523-.857-.523-.382 0-.674.174-.875.523-.17.288-.255.64-.255 1.055 0 .403.085.749.255 1.037.207.349.494.523.867.523.364 0 .65-.177.856-.532.176-.294.265-.643.265-1.046m.988-.031c0 .67-.188 1.222-.565 1.654-.395.444-.917.666-1.572.666-.629 0-1.13-.213-1.505-.639-.373-.425-.56-.962-.56-1.61 0-.677.192-1.231.578-1.663.385-.432.905-.648 1.558-.648.63 0 1.136.213 1.518.638.365.415.548.948.548 1.602M90.417 11.032h-.952V8.529c0-.772-.288-1.157-.866-1.157-.283 0-.512.105-.688.318-.175.212-.265.462-.265.75v2.592h-.954v-3.12c0-.385-.01-.801-.034-1.25h.837l.045.682h.026c.112-.212.278-.388.494-.527.26-.164.548-.246.866-.246.4 0 .732.132.997.396.33.324.494.806.494 1.448v2.617zM96.806 7.449h-1.05v2.123c0 .54.187.81.556.81.171 0 .313-.016.425-.046l.025.737c-.189.073-.435.109-.741.109-.377 0-.67-.118-.882-.35-.213-.235-.318-.628-.318-1.18V7.45h-.627V6.72h.627v-.8l.935-.287V6.72h1.05v.729zM101.687 11.07h-.955V8.585c0-.783-.287-1.175-.863-1.175-.443 0-.745.227-.91.682-.029.095-.045.212-.045.35v2.628h-.953V4.694h.953v2.634h.018c.3-.48.73-.719 1.289-.719.394 0 .722.132.98.396.324.33.486.818.486 1.466v2.599zM105.573 8.397c.007-.288-.055-.537-.185-.746-.165-.27-.417-.406-.759-.406-.31 0-.565.132-.759.396-.158.21-.252.462-.283.756h1.986zm.91.251c0 .175-.013.321-.035.442h-2.86c.012.43.149.76.413.989.242.204.556.306.938.306.423 0 .808-.07 1.156-.207l.15.674c-.407.18-.885.27-1.44.27-.664 0-1.187-.2-1.565-.598-.38-.399-.569-.934-.569-1.606 0-.66.176-1.208.53-1.646.37-.467.869-.7 1.5-.7.616 0 1.085.233 1.402.7.254.373.38.831.38 1.376z" transform="translate(.884 1.327)"/>
    </g>
</svg>
