<svg xmlns="http://www.w3.org/2000/svg" width="119" height="37" viewBox="0 0 119 37">
    <g fill="none" fill-rule="evenodd">
        <path fill="#9E9E9E" fill-rule="nonzero" d="M93.682 27.262h1.613V16.354h-1.613v10.908zm14.525-6.979l-1.849 4.73h-.055l-1.919-4.73h-1.737l2.877 6.61-1.64 3.677h1.683L110 20.283h-1.793zm-9.145 5.74c-.53 0-1.266-.266-1.266-.926 0-.842.918-1.165 1.71-1.165.71 0 1.042.155 1.473.365-.125 1.01-.987 1.726-1.917 1.726zm.194-5.978c-1.167 0-2.376.519-2.877 1.67l1.431.603c.306-.603.876-.8 1.474-.8.834 0 1.682.505 1.695 1.404v.112c-.292-.169-.917-.421-1.681-.421-1.543 0-3.114.856-3.114 2.455 0 1.46 1.265 2.401 2.682 2.401 1.085 0 1.682-.491 2.058-1.067h.055v.842h1.557v-4.182c0-1.937-1.431-3.017-3.28-3.017zM89.29 21.61h-2.294v-3.739h2.294c1.206 0 1.89 1.008 1.89 1.87 0 .845-.684 1.87-1.89 1.87zm-.041-5.257h-3.864v10.908h1.611V23.13h2.253c1.787 0 3.544-1.307 3.544-3.388s-1.757-3.387-3.544-3.387zm-21.07 9.67c-1.115 0-2.047-.94-2.047-2.234 0-1.307.932-2.264 2.046-2.264 1.1 0 1.963.957 1.963 2.264 0 1.293-.863 2.235-1.963 2.235zm1.85-5.13h-.055c-.362-.436-1.058-.83-1.935-.83-1.838 0-3.523 1.63-3.523 3.726 0 2.08 1.685 3.697 3.523 3.697.877 0 1.573-.393 1.935-.843h.055v.534c0 1.42-.75 2.18-1.962 2.18-.989 0-1.602-.718-1.852-1.323l-1.406.591c.403.984 1.476 2.193 3.258 2.193 1.893 0 3.495-1.125 3.495-3.866V20.29h-1.533v.605zm2.647 6.368h1.615v-10.91h-1.615v10.91zm3.995-3.598c-.042-1.434 1.1-2.165 1.92-2.165.642 0 1.185.322 1.366.787l-3.286 1.378zm5.012-1.238c-.306-.829-1.24-2.361-3.146-2.361-1.894 0-3.467 1.503-3.467 3.711 0 2.08 1.56 3.711 3.647 3.711 1.685 0 2.66-1.04 3.064-1.645L80.528 25c-.418.618-.989 1.026-1.81 1.026-.822 0-1.407-.38-1.783-1.124l4.915-2.052-.167-.423zm-39.156-1.222v1.574h3.731c-.111.886-.403 1.532-.848 1.982-.544.548-1.394 1.152-2.883 1.152-2.297 0-4.093-1.869-4.093-4.188 0-2.32 1.796-4.19 4.093-4.19 1.24 0 2.145.492 2.813 1.125l1.1-1.11c-.934-.9-2.172-1.59-3.913-1.59-3.146 0-5.792 2.587-5.792 5.765 0 3.177 2.646 5.763 5.792 5.763 1.699 0 2.98-.562 3.982-1.617 1.03-1.04 1.35-2.501 1.35-3.683 0-.366-.027-.702-.083-.983h-5.249zm9.575 4.82c-1.114 0-2.075-.927-2.075-2.248 0-1.336.961-2.25 2.075-2.25 1.113 0 2.074.914 2.074 2.25 0 1.321-.96 2.249-2.074 2.249zm0-5.96c-2.033 0-3.69 1.561-3.69 3.712 0 2.136 1.657 3.711 3.69 3.711s3.69-1.575 3.69-3.71c0-2.152-1.657-3.712-3.69-3.712zm8.048 5.96c-1.113 0-2.074-.927-2.074-2.248 0-1.336.96-2.25 2.074-2.25 1.114 0 2.075.914 2.075 2.25 0 1.321-.96 2.249-2.075 2.249zm-3.689-2.248c0 2.136 1.657 3.711 3.69 3.711 2.032 0 3.689-1.575 3.689-3.71 0-2.152-1.657-3.712-3.69-3.712-2.032 0-3.689 1.56-3.689 3.711zM10.76 7.573c-.25.269-.399.685-.399 1.225v19.283c0 .54.148.957.4 1.225l.064.063 10.698-10.802v-.255L10.825 7.51l-.064.063" transform="translate(-1)"/>
        <path fill="#9E9E9E" fill-rule="nonzero" stroke="#F7F7F7" stroke-width=".5" d="M12.156 7.803l12.614 7.238-3.647 3.682L10.361 7.856c.212-.225.496-.346.827-.346.293 0 .621.094.968.293zM25.23 22.479l-3.565-3.602v-.255l3.566-3.602 4.306 2.47c1.206.693 1.206 1.825 0 2.517l-4.226 2.425-.082.047M24.77 22.458l-3.647-3.682-10.762 10.866c.399.425 1.055.478 1.795.053l12.614-7.237" transform="translate(-1)"/>
        <path fill="#9E9E9E" fill-rule="nonzero" d="M37.4 11.164h.921c.598 0 1.073-.173 1.423-.52.35-.346.525-.83.525-1.455 0-.618-.174-1.103-.525-1.452-.35-.347-.825-.522-1.423-.522h-.92v3.949zm-.665.643V6.571h1.586c.797 0 1.434.243 1.913.728.477.485.716 1.115.716 1.89 0 .775-.24 1.405-.716 1.89-.479.486-1.116.728-1.913.728h-1.586z" transform="translate(-1)"/>
        <path fill="#9E9E9E" fill-rule="nonzero" d="M37.487 11.251v.088h.92c.614 0 1.116-.18 1.484-.545.37-.365.552-.878.551-1.517.001-.636-.181-1.147-.55-1.514-.369-.367-.87-.548-1.484-.548H37.4v4.124h.086v-.088h.087V7.39h.834c.582 0 1.03.168 1.362.498.33.33.498.787.5 1.39-.002.608-.17 1.065-.5 1.392-.332.328-.78.494-1.362.495h-.92v.087h.086-.087zm-.665.643h.086V6.746h1.5c.78 0 1.39.235 1.85.702.462.468.691 1.071.692 1.829 0 .757-.23 1.36-.691 1.829-.462.466-1.072.7-1.851.701h-1.586v.087h.086-.086v.088h1.586c.813 0 1.478-.25 1.974-.753.494-.502.742-1.16.741-1.952.001-.794-.247-1.45-.741-1.952-.496-.504-1.161-.754-1.974-.754h-1.673v5.41h.087v-.087zM42.387 11.807L43.053 11.807 43.053 6.571 42.387 6.571z" transform="translate(-1)"/>
        <path fill="#9E9E9E" fill-rule="nonzero" d="M42.474 11.894L42.56 11.894 42.56 6.746 43.053 6.746 43.053 11.807 42.474 11.807 42.474 11.894 42.56 11.894 42.474 11.894 42.474 11.982 43.225 11.982 43.225 6.571 42.387 6.571 42.387 11.982 42.474 11.982 42.474 11.894M46.081 12.041c-.376 0-.744-.124-1.104-.373-.36-.248-.595-.597-.706-1.046l.608-.248c.073.287.22.53.445.727.226.197.477.296.757.296.29 0 .538-.076.743-.23.205-.153.308-.362.308-.625 0-.292-.103-.518-.308-.676-.205-.16-.53-.306-.974-.443-.459-.146-.806-.335-1.043-.567-.236-.231-.355-.527-.355-.888 0-.376.147-.702.442-.98.295-.278.678-.417 1.151-.417.44 0 .797.111 1.072.333.275.222.454.464.536.728l-.608.255c-.044-.165-.151-.319-.322-.46-.171-.14-.393-.212-.664-.212-.256 0-.474.072-.654.216-.182.144-.272.323-.272.537 0 .195.083.36.25.494.167.134.412.254.735.362.256.083.47.163.641.241.171.078.345.182.521.311.176.13.309.29.398.483.09.192.135.415.135.668 0 .254-.052.48-.156.68-.104.2-.242.358-.413.476-.172.116-.356.205-.554.266-.199.061-.401.092-.609.092" transform="translate(-1)"/>
        <path fill="#9E9E9E" fill-rule="nonzero" d="M45.242 12.128v-.087c-.358 0-.707-.117-1.056-.357-.343-.238-.564-.564-.671-.996l-.084.021.032.082.61-.25-.034-.08-.083.022c.077.304.235.563.471.772.239.208.514.317.815.317.304 0 .573-.082.794-.247.225-.167.344-.41.342-.696.002-.312-.114-.571-.341-.745-.22-.17-.553-.319-1.002-.457-.45-.143-.786-.328-1.008-.546-.22-.216-.328-.484-.329-.826 0-.352.135-.65.415-.915.277-.261.636-.394 1.092-.394.426 0 .76.106 1.018.313.266.215.432.444.508.686l.082-.026-.033-.08-.608.255.033.08.084-.022c-.05-.187-.17-.356-.352-.505-.188-.157-.433-.232-.718-.232-.271 0-.512.077-.708.234-.198.156-.306.367-.305.606 0 .222.1.417.283.562.18.144.433.268.762.377.254.082.465.161.633.238.165.074.333.175.505.301v.001c.165.12.287.27.371.449.083.18.126.389.126.631s-.05.454-.145.64c-.099.19-.226.335-.386.444-.165.112-.34.197-.53.256-.19.058-.385.087-.583.087v.175c.216 0 .426-.032.633-.096.207-.063.398-.156.577-.278.184-.125.332-.295.442-.507.11-.213.165-.455.165-.72 0-.264-.047-.5-.143-.707-.095-.205-.238-.378-.426-.515-.18-.133-.357-.24-.535-.32-.177-.08-.393-.161-.651-.245-.317-.105-.553-.223-.708-.347-.15-.123-.215-.257-.217-.426.002-.189.074-.336.239-.469.165-.13.362-.196.601-.196.257 0 .456.065.61.192.16.133.254.271.292.415l.026.096.7-.294.072-.03-.023-.076c-.089-.284-.28-.54-.565-.77-.294-.236-.672-.352-1.126-.352-.489 0-.899.146-1.21.441-.309.29-.47.644-.47 1.043 0 .38.129.704.382.951.25.245.61.439 1.077.587.44.136.757.281.947.43.183.143.272.334.274.606-.002.241-.088.415-.272.556-.19.14-.418.212-.691.213-.26-.001-.489-.09-.701-.275-.212-.187-.349-.412-.418-.683l-.024-.097-.7.286-.07.028.018.073c.114.467.364.838.742 1.098.37.256.757.388 1.153.388v-.088M48.705 9.043h1.116c.28 0 .504-.095.673-.285.168-.19.253-.4.253-.629 0-.23-.085-.439-.253-.628-.169-.191-.393-.286-.673-.286h-1.116v1.828zm0 2.764h-.666V6.571h1.767c.439 0 .82.148 1.14.443.321.295.482.667.482 1.115 0 .449-.16.82-.482 1.115-.32.295-.701.443-1.14.443h-1.101v2.12z" transform="translate(-1)"/>
        <path fill="#9E9E9E" fill-rule="nonzero" d="M48.791 9.13v.087h1.116c.3.001.553-.105.737-.313h.001c.18-.203.276-.436.275-.688 0-.251-.095-.484-.276-.686h.001c-.185-.21-.439-.316-.738-.315h-1.202v2.002h.086V9.13h.087V7.39h1.03c.26 0 .455.085.608.256l.001.001-.001-.001c.157.178.23.364.231.57 0 .207-.074.393-.231.571-.153.171-.348.255-.609.256h-1.116v.087h.087-.087zm0 2.764v-.087h-.58V6.746h1.681c.42 0 .776.139 1.082.42.306.28.453.623.454 1.05 0 .428-.148.77-.454 1.051-.306.28-.662.419-1.082.42h-1.187v2.207h.086v-.087.087h.087V9.861h1.014c.458.001.864-.156 1.2-.466.337-.309.51-.71.509-1.179 0-.47-.172-.87-.51-1.18-.335-.308-.74-.465-1.199-.465H48.04v5.41h.839v-.087h-.087zM53.062 10.809c.384.393.853.588 1.409.588.555 0 1.025-.195 1.408-.588.384-.393.577-.894.577-1.503 0-.609-.193-1.11-.577-1.502-.383-.393-.853-.589-1.408-.589-.556 0-1.025.196-1.409.589-.383.392-.575.893-.575 1.502 0 .61.192 1.11.575 1.503zm3.31.439c-.51.529-1.143.793-1.901.793s-1.392-.264-1.9-.793c-.51-.529-.765-1.176-.765-1.942 0-.765.255-1.413.764-1.941.509-.53 1.143-.794 1.9-.794.754 0 1.386.266 1.899.797.511.532.767 1.177.767 1.938 0 .766-.255 1.413-.764 1.942z" transform="translate(-1)"/>
        <path fill="#9E9E9E" fill-rule="nonzero" d="M53.149 10.896l-.062.061c.398.409.895.616 1.47.615.576.001 1.073-.206 1.47-.615.4-.407.603-.936.602-1.564 0-.627-.202-1.155-.602-1.563-.397-.409-.894-.615-1.47-.615-.575 0-1.072.206-1.47.615l-.002.002.002-.002c-.4.408-.601.936-.6 1.563-.001.628.2 1.157.6 1.564l.123-.122c-.366-.376-.55-.85-.55-1.442 0-.59.184-1.065.55-1.441.37-.377.812-.561 1.347-.562.535 0 .979.185 1.347.562.368.377.551.85.552 1.441 0 .591-.184 1.065-.551 1.442-.37.377-.813.562-1.348.563-.535-.002-.977-.186-1.347-.563l-.061.061zm3.31.44l-.063-.062c-.495.513-1.1.766-1.839.767-.738 0-1.344-.254-1.839-.767l-.002-.003.002.003c-.494-.514-.738-1.134-.739-1.88.001-.747.245-1.367.74-1.881.494-.513 1.1-.766 1.838-.767.734 0 1.338.256 1.836.77.497.517.742 1.137.743 1.877 0 .747-.245 1.367-.74 1.881l.125.121c.523-.543.789-1.217.788-2.002 0-.78-.265-1.452-.792-1.998-.526-.548-1.186-.824-1.96-.824-.778 0-1.44.275-1.962.82-.526.544-.79 1.218-.789 2.002 0 .785.263 1.46.789 2.002.522.547 1.184.821 1.962.82.778.001 1.44-.273 1.964-.82l-.062-.06zM58.4 11.807L58.4 6.571 59.211 6.571 61.731 10.644 61.759 10.644 61.731 9.635 61.731 6.571 62.398 6.571 62.398 11.807 61.702 11.807 59.065 7.537 59.037 7.537 59.065 8.546 59.065 11.807 58.4 11.807" transform="translate(-1)"/>
        <path fill="#9E9E9E" fill-rule="nonzero" d="M58.486 11.894L58.573 11.894 58.573 6.746 59.25 6.746 61.77 10.819 61.935 10.819 61.904 9.722 61.904 6.746 62.398 6.746 62.398 11.807 61.837 11.807 59.2 7.537 59.034 7.537 59.065 8.634 59.065 11.807 58.486 11.807 58.486 11.894 58.573 11.894 58.486 11.894 58.486 11.982 59.238 11.982 59.238 8.632 59.21 7.622 59.123 7.624 59.123 7.711 59.152 7.711 59.152 7.624 59.078 7.67 61.741 11.982 62.571 11.982 62.571 6.571 61.731 6.571 61.731 9.723 61.76 10.734 61.846 10.731 61.846 10.645 61.817 10.645 61.817 10.731 61.891 10.686 59.345 6.571 58.4 6.571 58.4 11.982 58.486 11.982 58.486 11.894M64.674 6.569h-.58l.378-.936h.724l-.522.936zm-.622 5.645h.666V6.978h-.666v5.236z" transform="translate(-1)"/>
        <path fill="#9E9E9E" fill-rule="nonzero" d="M64.76 6.656V6.57h-.45l.306-.762h.518l-.449.806.075.043V6.57v.087l.076.043.594-1.066h-.93l-.448 1.11h.76l.024-.044-.076-.043zm-.622 5.645h.086V7.153h.493v5.06h-.579v.088h.086-.086v.087h.752v-5.41h-.838v5.41h.086v-.087zM66.819 11.807L64.994 6.571 65.732 6.571 67.151 10.82 67.181 10.82 68.659 6.571 69.397 6.571 67.514 11.807 66.819 11.807" transform="translate(-1)"/>
        <path fill="#9E9E9E" fill-rule="nonzero" d="M66.941 11.894L67.022 11.866 65.238 6.746 65.792 6.746 67.212 10.995 67.364 10.995 68.842 6.746 69.395 6.746 67.575 11.807 66.941 11.807 66.941 11.894 67.022 11.866 66.941 11.894 66.941 11.982 67.697 11.982 69.642 6.571 68.719 6.571 67.221 10.879 67.303 10.907 67.303 10.82 67.273 10.82 67.273 10.907 67.355 10.88 65.917 6.571 64.994 6.571 66.879 11.982 66.941 11.982 66.941 11.894M72.731 7.215L70.37 7.215 70.37 8.875 72.499 8.875 72.499 9.503 70.37 9.503 70.37 11.164 72.731 11.164 72.731 11.807 69.703 11.807 69.703 6.571 72.731 6.571 72.731 7.215" transform="translate(-1)"/>
        <path fill="#9E9E9E" fill-rule="nonzero" d="M72.817 7.302L72.817 7.215 70.37 7.215 70.37 9.05 72.499 9.05 72.499 9.503 70.37 9.503 70.37 11.339 72.731 11.339 72.731 11.807 69.876 11.807 69.876 6.746 72.731 6.746 72.731 7.302 72.817 7.302 72.817 7.215 72.817 7.302 72.903 7.302 72.903 6.571 69.703 6.571 69.703 11.982 72.903 11.982 72.903 11.164 70.542 11.164 70.542 9.678 72.672 9.678 72.672 8.875 70.542 8.875 70.542 7.389 72.903 7.389 72.903 7.302 72.817 7.302M74.413 11.807L74.413 6.571 75.079 6.571 75.079 11.164 77.324 11.164 77.324 11.807 74.413 11.807" transform="translate(-1)"/>
        <path fill="#9E9E9E" fill-rule="nonzero" d="M74.499 11.894L74.586 11.894 74.586 6.746 75.079 6.746 75.079 11.339 77.324 11.339 77.324 11.807 74.499 11.807 74.499 11.894 74.586 11.894 74.499 11.894 74.499 11.982 77.496 11.982 77.496 11.164 75.252 11.164 75.252 6.571 74.413 6.571 74.413 11.982 74.499 11.982 74.499 11.894M80.065 6.571L80.875 6.571 83.395 10.644 83.424 10.644 83.395 9.635 83.395 6.571 84.062 6.571 84.062 11.807 83.367 11.807 80.73 7.537 80.701 7.537 80.73 8.546 80.73 11.807 80.065 11.807z" transform="translate(-1)"/>
        <path fill="#9E9E9E" fill-rule="nonzero" d="M80.151 11.894L80.237 11.894 80.237 6.746 80.914 6.746 83.434 10.819 83.599 10.819 83.568 9.722 83.568 6.746 84.062 6.746 84.062 11.807 83.501 11.807 80.865 7.537 80.699 7.537 80.73 8.634 80.73 11.807 80.151 11.807 80.151 11.894 80.237 11.894 80.151 11.894 80.151 11.982 80.903 11.982 80.903 8.632 80.874 7.622 80.788 7.624 80.788 7.711 80.816 7.711 80.816 7.624 80.743 7.67 83.406 11.982 84.235 11.982 84.235 6.571 83.395 6.571 83.395 9.724 83.424 10.734 83.51 10.731 83.51 10.645 83.482 10.645 83.482 10.731 83.555 10.686 81.01 6.571 80.065 6.571 80.065 11.982 80.151 11.982 80.151 11.894M86.03 10.809c.384.393.853.588 1.409.588.554 0 1.025-.195 1.408-.588.384-.393.577-.894.577-1.503 0-.609-.193-1.11-.577-1.502-.383-.393-.854-.589-1.408-.589-.556 0-1.025.196-1.41.589-.382.392-.575.893-.575 1.502 0 .61.193 1.11.576 1.503zm3.31.439c-.51.529-1.144.793-1.901.793-.758 0-1.393-.264-1.9-.793-.51-.529-.765-1.176-.765-1.942 0-.765.254-1.413.764-1.941.508-.53 1.143-.794 1.9-.794.754 0 1.386.266 1.898.797.512.532.768 1.177.768 1.938 0 .766-.255 1.413-.764 1.942z" transform="translate(-1)"/>
        <path fill="#9E9E9E" fill-rule="nonzero" d="M86.116 10.896l-.061.061c.397.409.894.616 1.47.615.576.001 1.072-.206 1.47-.615.4-.407.602-.936.602-1.564 0-.627-.202-1.155-.602-1.563-.398-.409-.894-.615-1.47-.615s-1.073.206-1.47.615c-.4.408-.602.936-.6 1.563-.002.628.2 1.157.6 1.564l.123-.122c-.367-.376-.55-.85-.55-1.442 0-.59.183-1.065.55-1.441.37-.377.811-.561 1.347-.562.535 0 .978.185 1.346.562l.004.003-.003-.003c.368.377.55.85.552 1.441-.001.591-.184 1.065-.552 1.442-.369.377-.812.562-1.347.563-.536-.002-.977-.186-1.347-.563l-.062.061zm3.31.44l-.062-.062c-.495.513-1.101.766-1.839.767-.738 0-1.345-.254-1.84-.767l-.002-.003.003.003c-.494-.514-.738-1.134-.739-1.88 0-.747.245-1.367.739-1.881.494-.513 1.1-.766 1.839-.767.734 0 1.338.256 1.836.77.496.517.742 1.137.743 1.877-.001.747-.247 1.367-.74 1.881l.124.121c.524-.543.79-1.217.789-2.002 0-.78-.266-1.452-.792-1.998-.527-.548-1.187-.824-1.96-.824-.778 0-1.44.275-1.963.82-.525.544-.789 1.218-.788 2.002 0 .785.263 1.46.788 2.002.523.547 1.185.821 1.963.82.778.001 1.439-.273 1.963-.82l-.062-.06z" transform="translate(-1)"/>
        <path d="M0 0L118.929 0 118.929 37.157 0 37.157z" transform="translate(-1)"/>
        <path stroke="#9E9E9E" d="M118.553 32.345c0 1.933-1.502 3.499-3.36 3.499H5.248c-1.857 0-3.364-1.566-3.364-3.5v-27.9C1.884 2.51 3.39.938 5.248.938h109.944c1.859 0 3.36 1.571 3.36 3.504v27.902h0z" transform="translate(-1)"/>
    </g>
</svg>
