<svg xmlns="http://www.w3.org/2000/svg" viewBox="0 0 310.14 254">
  <defs>
    <mask id="a" width="269.43" height="211.46" x="40.57" y="5.27" maskUnits="userSpaceOnUse">
      <path fill="#fff" d="M40.57 5.27H310v211.46H40.57V5.27z"/>
    </mask>
    <mask id="b" width="310.27" height="252.22" x="0" y=".89" maskUnits="userSpaceOnUse">
      <path fill="#fff" d="M0 253.11h310.27V.89H0v252.22z"/>
    </mask>
  </defs>
  <g mask="url(#a)">
    <path fill="#00e98b" d="M45 121.5c-5.23 18.61-6.66 37.88.13 56.36 9.88 26.88 35.13 38.88 60.4 38.87 13.37 0 26.46-7.27 40.19-6.71a191.74 191.74 0 0 0 43-3.17c29.14-5.47 58.5-16.85 82.74-35.85 13.42-10.51 26.21-24.29 33.82-40.59 6.74-14.41 6.29-36.87-2.06-50.76-4.4-7.32-11.7-11.94-19.17-14.93-14.83-5.93-30.73-6.3-46.31-6.06-11.61.17-25.49-7.22-30.74-19.34-4-9.14-3.15-20.94-9.6-28.14-5.68-6.34-14.84-6.54-22.84-5.32-32.2 4.92-59.04 24.4-83.83 46.14C70.37 69.88 52.8 93.83 45 121.5"/>
  </g>
  <path fill="#fff" d="M196.22 109.82l-3.5-.66c-20.51-4-23.86-3.64-38-2.07-3.21.36-6.84.76-11.38 1.2-4.84.46-10.45 1-15.9 1.88-9.51 1.48-24.12 5.46-34 11.81-6.32 4.07-14.7 10.43-14.42 18.62.13 4 2.9 7 5.57 10a27.93 27.93 0 0 1 3.89 4.92 69.78 69.78 0 0 1 3.25 7 68.93 68.93 0 0 0 3.64 7.7c3.24 5.57 6.91 11.9 12.5 15.84l.56.38c1.72 1.19 3.51 2.43 3.73 4.33.17 1.47-.68 2.89-1.51 4.27l-.39.67c-1.39 2.41-1.54 4.7-.41 6.13a5.47 5.47 0 0 0 2 1.43 6.49 6.49 0 0 1 1.16.66c2 1.48 2.13 5 2.28 8.44.13 2.83.26 5.76 1.39 7.81a8.38 8.38 0 0 0 1.87 2.2 6.63 6.63 0 0 1 1.95 2.53c.81 2 .86 4.86.91 7.63a43.75 43.75 0 0 0 .26 4.67 7.79 7.79 0 0 0 .86 2.65l.18.32h90.75l.13-.45a39.32 39.32 0 0 0 1-8.32c.06-1.37.12-2.66.24-3.63a20.73 20.73 0 0 0-.82-7.62 17.93 17.93 0 0 1-.77-5.77c.12-1.41 1.28-2.27 2.63-3.27a8.65 8.65 0 0 0 3-3.11c1.09-2.36-.08-5-.88-6.38-.32-.55-.67-1.09-1-1.6a13.75 13.75 0 0 1-1.88-3.54c-1.22-4 1.35-8.18 4.3-12 10.08-13.14 17.29-27.77 19.29-39.12 4.69-26.62-24.84-32.14-42.49-35.44"/>
  <path fill="#fff" d="M109.49 118.82c-4.09-4.17-9.36-6.61-14.46-9-2.41-1.11-4.89-2.26-7.21-3.57-9-5.12-16.41-13-23.53-20.64-.75-.81-1.51-1.62-2.27-2.42l-.86-.93c-5.78-6.16-11.75-12.53-19.69-14.73-2.63-.73-6.45-1.17-9.65.84a7.8 7.8 0 0 0-3.63 5.45c-.79 4.45.92 13.21 13.57 29.69 15.62 20.33 35 41.61 60.29 45.28a18.13 18.13 0 0 0 2.65.2c5.64 0 8.44-3 9.82-5.74 3.43-6.81 1.08-18.24-5-24.46M295.63 99.84a38.23 38.23 0 0 0-7-7.53c-6.05-4.55-15.47-1.49-23.05 1-1.53.5-3 1-4.28 1.33-10.16 2.83-20.33 6.21-30.22 10-.76.29-2.05.74-3.68 1.3-15.38 5.28-29.57 10.92-29.22 16.41a21.09 21.09 0 0 0 10.24 16.86 22.27 22.27 0 0 0 11.1 2.81c8.77 0 17.73-4.36 25.37-8.08 1.23-.6 2.43-1.19 3.6-1.74l1.73-.81c2.73-1.26 7.28-3.38 12.63-6 21-10.41 32.24-18.1 33.32-22.87a3.09 3.09 0 0 0-.54-2.65"/>
  <path fill="#fdcb44" d="M108.51 181.05a.41.41 0 0 1-.26-.73 260.75 260.75 0 0 1 28.23-20.23.43.43 0 0 1 .58.13.42.42 0 0 1-.13.57A261.52 261.52 0 0 0 108.78 181a.39.39 0 0 1-.27.1M117.5 187.05a.38.38 0 0 1-.34-.22.52.52 0 0 1 .13-.63 24.41 24.41 0 0 1 9.36-4.14.4.4 0 0 1 .46.37.46.46 0 0 1-.32.53 23.78 23.78 0 0 0-9.09 4 .36.36 0 0 1-.2.06"/>
  <path d="M233.89 153.44a64.48 64.48 0 0 1-5.56 5.21c-12.74 10.56-28.54 11.45-46.33 11.45h-.25c-11.37 0-19.48 3.3-26.29 10.7-1.44 1.56-2.85 3.2-4.21 4.78a76.48 76.48 0 0 1-10.37 10.61c-6.53 5.14-17.06 8.92-26.84 9.65l-.9.06.24.87a27.33 27.33 0 0 1 .62 5.6c.13 2.82.26 5.74 1.4 7.81a8.51 8.51 0 0 0 1.9 2.21 6.58 6.58 0 0 1 1.91 2.47c.79 2 .85 4.8.9 7.53a39 39 0 0 0 .26 4.66 7.7 7.7 0 0 0 .87 2.67l.21.38h90.76l.16-.53a39.21 39.21 0 0 0 1-8.3c.06-1.35.12-2.63.23-3.59a20.44 20.44 0 0 0-.82-7.61 17.77 17.77 0 0 1-.77-5.69c.12-1.35 1.26-2.19 2.58-3.16a8.58 8.58 0 0 0 3-3.13c1.11-2.4-.08-5.07-.89-6.46-.32-.54-.67-1.07-1-1.59a13.5 13.5 0 0 1-1.86-3.48c-1.2-4 1.34-8 4.27-11.83 7.6-9.86 13.83-21 17.08-30.54l1.08-3.17z"/>
  <path fill="#fc7b01" d="M174.11 86.69c1.47 4.42 9.64 9.63 6.33 15s-14.27 5.2-19.61 5.29-14.76 1.32-19-2.67c-4.36-4.14.15-10 3.31-13.14 5.09-5.1 3.07-13 1.66-19.53a63.41 63.41 0 0 0-3.9-13.25c-1.88-4.08-4.7-7.71-8.35-9.4a11.37 11.37 0 0 0-11.36 1.14c-12.24 8.66-4.74 29.78-4.26 42 .09 2.44.18 10.46-.66 12.75-2 5.35-7.31 8.29-12.2 10.86-1.53.8-3.31 2.12-3 3.88 1 5 14 3.75 17.23 3.66 9.54-.26 19.83.59 29.12-1.63 5-1.19 10.49-3.15 15.12-.78 2.45 1.25 4.31 3.58 6.84 4.62a7.83 7.83 0 0 0 8.24-1.63c5.14-5 5.67-6.69 12.68-3.89 4.83 1.93 18.52 4.64 21.6-2a2.25 2.25 0 0 0 .22-.91 3.9 3.9 0 0 0-.94-2.61 15.65 15.65 0 0 0-2.85-2.34c-4.43-3.36-7.08-14.51-7.91-20.17s-.22-11.44.38-17.13c1-9 2.68-19-6-24.69a11.45 11.45 0 0 0-11.42-.83c-3.56 1.79-6.16 5.49-7.79 9.63a62.66 62.66 0 0 0-3.12 13.37c-.71 4.63-1.95 9.88-.43 14.47"/>
  <path d="M140.88 38.55c-.46-2.18-1.56-3.77-3-4.37a4.39 4.39 0 0 0-4.4.88 8 8 0 0 0-2.05 2.8 6.36 6.36 0 0 0-6.3-1.56 6.84 6.84 0 0 0-4.4 5.41 6.13 6.13 0 0 0-5.09 2 5.07 5.07 0 0 0-.4 5.75l.16.3c.33.65.78 1.53.59 2.06 0 .08-.12.32-.63.52a2 2 0 0 1-.55.09h-.47c-1.61.26-2.68 1.88-3 3.37a7.72 7.72 0 0 0-.18 2.24 14.73 14.73 0 0 0 .38 2.38c.56 2.32 5.14 11.44 8.12 11.44h.16c1.66-.2 1.85-2.71 1.84-4.58V55.17a29.09 29.09 0 0 0 12.79-3.53c5-2.74 7.6-7.91 6.51-13.17"/>
  <path fill="#fff" d="M104.5 128.71c-3.52-3.56-7.27-5.12-11.14-4.62-4.93.63-9.88 4.69-13.58 11.15-.33.58-.65 1.18-1 1.78-3 6.1-6.46 12.11-9.76 17.91-4.42 7.77-9 15.8-12.75 24.21-5.49 12.38-10.76 24.73-14.27 39.57-1 4.3-2.19 9.17-1.9 13.94.27 4.5 2.22 9.62 6 10.91a9.69 9.69 0 0 0 3.17.54c11.61 0 20.3-22 25.15-34.27l.42-1.06c.58-1.47 1.12-2.87 1.64-4.23 2.64-6.93 4.92-12.91 10.31-19.31 1.59-1.88 3.27-3.75 4.9-5.56 5.19-5.75 10.55-11.69 13.76-19.11a47.11 47.11 0 0 0 3.46-13.93c.84-8-.68-14.18-4.37-17.92"/>
  <path fill="#fc7b01" d="M159.87 215.39a1.69 1.69 0 0 0-.26-.28c-1.62-1.34-6.86 2.16-8.34 3-1.09.62-9.58 5.82-9.43 1.83a3 3 0 0 1 1.28-2c3.48-3 8-4.64 11.08-8 .79-.86 2.15-2.52 1.85-3.86s-1.77-1.33-2.79-.82c-2.45 1.23-4.54 3.1-6.8 4.67a32.1 32.1 0 0 1-8.52 4.17c-.79.25-6.37 2.48-4.54-.51.92-1.49 2.76-2.06 3.94-3.25a7.27 7.27 0 0 0 2-5.51 2.27 2.27 0 0 0-.28-1.07 1.65 1.65 0 0 0-2-.44 6.45 6.45 0 0 0-1.79 1.44c-3.87 3.77-9.95 3.54-13.6 7.52-1.68 1.84-2.47 4.38-4.28 6.12s-4 2.48-6.12 3.31a92.54 92.54 0 0 1-15.59 4.21 111.82 111.82 0 0 1-25.17 1.88l-16.76-.47c-3.87-.1-8.15-.06-11 2.64-3.47 3.23-3.37 9.32-.75 13.34s7.12 6.24 11.62 7.45c16.3 4.39 33.4 2.27 49.53-1.87 9.22-2.37 18.43-4.75 27.49-7.7 4.61-1.51 9.18-3.16 13.68-5 3.57-1.47 8.52-2.85 10.89-6.26.4-.57.68-1.45.17-1.9a1.4 1.4 0 0 0-.74-.25c-4-.4-7 3.21-11.18 2.33-.48-.11-1.06-.39-1-.91a1.12 1.12 0 0 1 .45-.75c1.69-1.54 19.75-9.28 17.06-13"/>
  <path fill="#fff" d="M280.42 192.78c-3.37-11.4-8.46-20.74-13.82-30.1a217.41 217.41 0 0 0-23.07-32.86c-2.3-2.7-4.61-5.24-7.65-6.72-3.52-1.72-7.4-1.41-9.89.78-5 4.4-2.19 13-.09 17.65 5.24 11.67 11.19 23.34 16.95 34.63q2.72 5.33 5.41 10.66l.41.81c4.29 8.54 12.79 25.45 24 25.45a11.68 11.68 0 0 0 3.57-.58c3.71-1.19 5.67-5.32 6-8.88.32-3.77-.79-7.53-1.77-10.84"/>
  <path fill="#fc7b01" d="M228.87 102.17c1.45 3.22 2.57 6.61 3.91 9.88a45.09 45.09 0 0 0 3.24 6.62c.57.93 2.25 5 3.16 2.41.58-1.63-.07-3.48.12-5.15a7 7 0 0 1 2.94-4.93 2 2 0 0 1 1-.4 1.7 1.7 0 0 1 1.54 1.44 7 7 0 0 1 0 2.32c-.54 5.41 3.2 10.3 2.36 15.64-.39 2.48-1.84 4.63-2.09 7.14a19.85 19.85 0 0 0 1.12 7 101.93 101.93 0 0 0 6 15.36 122.13 122.13 0 0 0 13.38 21.89q5.11 6.78 10.21 13.57c2.36 3.13 4.84 6.69 4.52 10.66-.39 4.77-5 8.26-9.58 8.46s-8.87-2.21-12.42-5.21c-12.88-10.89-21.35-26.26-27.72-42-3.64-9-7.28-18-10.39-27.22-1.5-4.47-5.11-11.74-1.05-15.88a18.29 18.29 0 0 1 5-3.38c2.27-1.24 4.68-2.57 4-5.55-1.21-5.18-3.48-9.95-4.37-15.21-.14-.86-.15-1.91.53-2.41a1.53 1.53 0 0 1 1.74.1 4.33 4.33 0 0 1 1.17 1.47 36.1 36.1 0 0 1 1.72 3.4"/>
  <path fill="#fdcb44" d="M93.48 177a.39.39 0 0 1-.3-.13.42.42 0 0 1 0-.58 51.54 51.54 0 0 0 15.09-25 .4.4 0 0 1 .49-.28.4.4 0 0 1 .28.49 52.36 52.36 0 0 1-15.33 25.41.39.39 0 0 1-.27.1"/>
  <g mask="url(#b)">
    <path fill="#e55604" d="M161.14 240.1h86.08v-6.01h-86.08v6.01z"/>
  </g>
  <g mask="url(#b)">
    <path fill="#fdcb44" d="M187.77 177.04l-7.61 64.06h84.47l7.61-64.06h-84.47z"/>
  </g>
  <g mask="url(#b)">
    <path fill="#00e98b" d="M236.18 209.28c-.27 4.31-3.61 7.8-7.47 7.8s-6.77-3.49-6.5-7.8c.14-2.18 1.81-7.2 4.41-6a10.26 10.26 0 0 0 2.16 1c1.17.21 2.34-.56 3.5-1 3.32-1.25 4.08 3.15 3.9 6"/>
  </g>
  <g mask="url(#b)">
    <path fill="#fc7b01" d="M242.21 13.9l16 15"/>
  </g>
  <g mask="url(#b)">
    <path d="M258.61 27.91a.66.66 0 0 1-.42-.15L241.42 13a.6.6 0 0 1 0-.86.63.63 0 0 1 .88 0L259 26.85a.6.6 0 0 1 .05.86.63.63 0 0 1-.46.2"/>
  </g>
  <g mask="url(#b)">
    <path fill="#fc7b01" d="M243.21 25.91a195.06 195.06 0 0 0 14-14"/>
  </g>
  <g mask="url(#b)">
    <path d="M242.84 26.91a.63.63 0 0 1-.46-.2.6.6 0 0 1 0-.86 193.46 193.46 0 0 0 13.76-13.75.64.64 0 0 1 .88 0 .61.61 0 0 1 .05.87c-4.36 4.83-9 9.48-13.81 13.83a.61.61 0 0 1-.42.16"/>
  </g>
  <g mask="url(#b)">
    <path fill="#fc7b01" d="M277.24 40.92a61.9 61.9 0 0 1 13-10"/>
  </g>
  <g mask="url(#b)">
    <path d="M276.86 40.92a.62.62 0 0 1-.43-.16.58.58 0 0 1 0-.83 61.24 61.24 0 0 1 12.9-9.93.62.62 0 0 1 .84.2.58.58 0 0 1-.17.8 59.78 59.78 0 0 0-12.66 9.73.62.62 0 0 1-.44.18"/>
  </g>
  <g mask="url(#b)">
    <path fill="#fc7b01" d="M277.24 28.91l11 14"/>
  </g>
  <g mask="url(#b)">
    <path d="M288.64 43.93a.64.64 0 0 1-.48-.22l-11.77-13.8a.6.6 0 0 1 .08-.86.63.63 0 0 1 .87.08l11.77 13.8a.6.6 0 0 1-.08.86.62.62 0 0 1-.39.14"/>
  </g>
  <g mask="url(#b)">
    <path fill="#e55604" d="M132.18 79.14a8.48 8.48 0 0 0 5.76 2.62 4.64 4.64 0 0 0 2-.3 4.42 4.42 0 0 0 2.28-2.73 11.63 11.63 0 0 0 .54-3.06zm6 3.82h-.34a9.78 9.78 0 0 1-7.27-3.74l-.51-.66 14-4.6v.89a15.75 15.75 0 0 1-.66 4.27 5.66 5.66 0 0 1-3 3.44 5.46 5.46 0 0 1-2.17.44z"/>
  </g>
  <g mask="url(#b)">
    <path fill="#e55604" d="M180.64 75.63a13.24 13.24 0 0 0 .82 3.22 4.55 4.55 0 0 0 2.46 2.66 4.07 4.07 0 0 0 2 .1 8.16 8.16 0 0 0 5.33-3.4zm4.41 7.37a4.55 4.55 0 0 1-1.51-.24 5.75 5.75 0 0 1-3.2-3.36 17.94 17.94 0 0 1-1.05-4.47l-.13-.94 14 3.42-.43.76a9.49 9.49 0 0 1-6.67 4.75 7.47 7.47 0 0 1-1.01.08z"/>
  </g>
  <g mask="url(#b)">
    <path fill="#e55604" d="M20.08 108.83c-2.19 0-4.62 1.54-6.36 3.44-6.41 7-8.94 16.85-11.17 27.21-2.36 11-2.28 25.39.2 37.68 3.88 19.2 12 27.69 18 31.43 2.48 1.52 6.22 2.49 9.29.64s4.08-5.56 4.11-8.46c.07-6.09-2.86-9.32-6.26-13.05a41.18 41.18 0 0 1-4.89-6.15 44.08 44.08 0 0 1-6.41-25.5c.2-3.21 1.81-8.2 3.67-14 3.95-12.25 8.86-27.49 2.17-32.5a4 4 0 0 0-2.39-.77m6.23 102.24a11.63 11.63 0 0 1-6-1.78c-11.29-6.93-16.25-21.21-18.42-32-2.5-12.39-2.58-27-.2-38 2.35-10.42 4.9-20.41 11.45-27.55 2.75-3 6.87-5 9.87-2.77 7.17 5.36 2.16 20.91-1.87 33.41-1.85 5.72-3.44 10.66-3.63 13.77a43.18 43.18 0 0 0 6.29 25 39.6 39.6 0 0 0 4.79 6c3.37 3.7 6.55 7.2 6.48 13.62 0 3.13-1.24 7.18-4.52 9.16a8 8 0 0 1-4.2 1.13"/>
  </g>
  <g mask="url(#b)">
    <path d="M207 55.34c-.35-1.54-1.43-3.22-3.05-3.48a4 4 0 0 0-.47 0 1.53 1.53 0 0 1-.56-.09c-.51-.21-.6-.46-.63-.54-.2-.54.26-1.46.59-2.13l.16-.31a5.34 5.34 0 0 0-.4-5.94 5.74 5.74 0 0 0-3-1.9 4.53 4.53 0 0 0-1-.12c-.58 0-.95-.06-1.09-.28a2.78 2.78 0 0 1 0-.83 3.34 3.34 0 0 0-.13-1.58 4.77 4.77 0 0 0-2.75-2.31 6.59 6.59 0 0 0-4.11.09c.21-3.76-2.15-7.56-5.54-8.63a7.32 7.32 0 0 0-6.53 1.12 8.44 8.44 0 0 0-3.29 6.15c-.43 6 3.57 13.73 8.56 16.51a28.71 28.71 0 0 0 12.88 3.66v12.53c0 1.93.19 4.53 1.86 4.73h.16c3 0 7.62-9.43 8.18-11.83a14.67 14.67 0 0 0 .38-2.46 8.29 8.29 0 0 0-.18-2.32"/>
  </g>
  <g mask="url(#b)">
    <path fill="#fc7b01" d="M206 146.28c0 .81.07 1.63.08 2.42 0 1.19 0 2.41.17 3.6a9.48 9.48 0 0 0 2.17 5.55c1.2 1.25 3.31 1.87 4.77.74s1.81-3.41 2-5.29a63.23 63.23 0 0 0 .19-7.41zm5.39 13.72a4.89 4.89 0 0 1-3.5-1.58 10.23 10.23 0 0 1-2.4-6c-.13-1.23-.15-2.48-.18-3.68 0-.92 0-1.88-.1-2.8v-.44l10.94-.46v.41a61.88 61.88 0 0 1-.18 7.94c-.17 2.06-.59 4.59-2.29 5.9a3.7 3.7 0 0 1-2.29.71z"/>
  </g>
  <g mask="url(#b)">
    <path d="M115.7 248.11a2.4 2.4 0 0 1-2.17-1.4 122.44 122.44 0 0 1-8.38-24.63 2.46 2.46 0 0 1 1.82-2.94 2.4 2.4 0 0 1 2.88 1.86 117 117 0 0 0 8 23.58 2.49 2.49 0 0 1-1.13 3.28 2.31 2.31 0 0 1-1 .25"/>
  </g>
  <g mask="url(#b)">
    <path fill="#fff" d="M116.07 238.69c-.41 4-6 6.17-8.28 2.63a4.45 4.45 0 0 1-.52-3.63 5.48 5.48 0 0 1 4.67-3.6 3.94 3.94 0 0 1 4.13 4.6"/>
  </g>
  <g mask="url(#b)">
    <path d="M112.43 234.3a4.78 4.78 0 0 0-4 3.08 3.79 3.79 0 0 0 .43 3.05 3.24 3.24 0 0 0 3.64 1.35 4.4 4.4 0 0 0 3.37-3.66 3.54 3.54 0 0 0-.8-2.78 3.44 3.44 0 0 0-2.65-1m-.88 8.8a4.29 4.29 0 0 1-3.68-2 5 5 0 0 1-.58-4.05 6 6 0 0 1 5.14-3.95 4.58 4.58 0 0 1 3.54 1.45 4.78 4.78 0 0 1 1.1 3.71 5.61 5.61 0 0 1-4.28 4.7 5.38 5.38 0 0 1-1.24.15"/>
  </g>
  <g mask="url(#b)">
    <path fill="#fc7b01" d="M294.21 99.67c.85 8.31-10.35 10.34-15.36 6.31-3-2.42-4.57-6.36-6-10.13q-5.06-13.62-9.36-27.54c-1.34-4.36-5.33-15.05 2-14.34 4.24.41 7.05 4.84 9.23 8.82 5.52 10.07 12.19 18.87 17 29.36a23.82 23.82 0 0 1 2.42 7.52"/>
  </g>
  <g mask="url(#b)">
    <path fill="#fc7b01" d="M265.05 46.55a4.65 4.65 0 0 0 .79-.28 14.39 14.39 0 0 1 5.65-1.64c2 0 4.08 1.26 4.46 3.3.24 1.27-.21 2.67.33 3.83a12.47 12.47 0 0 0 1.31 1.75c1.13 1.67.69 4.1-.53 5.69-3.59 4.64-11.76 7.27-15.4 1.21-2.64-4.41-2.21-9.49-3.1-14.32l-1.29-6.89a1.57 1.57 0 0 1 0-.61 1 1 0 0 1 .84-.62 3.18 3.18 0 0 1 3 1.3 9.41 9.41 0 0 1 1.5 4.72c.17 1.22.89 2.57 2.06 2.6a1.36 1.36 0 0 0 .4 0"/>
  </g>
  <g mask="url(#b)">
    <path fill="#fc7b01" d="M54.85 74c.89-4.88.54-9.8 1.28-14.86a77.62 77.62 0 0 1 6.07-20.76c1.89-4.17 5.55-11.57 9.1-14.28s8.91-2.06 11-6c1.46-2.75.77-4.87-.77-7-1.72-2.42-.35-3.62-.81-6.42-.38-2.29-2.93-3.27-5.09-3.57C72 .63 68.24.82 65.07 2.63 54.28 8.79 46.46 22 40.44 32.81c-7.07 12.73-11.74 27-12.36 42.11-.15 3.71-.13 7.65 1.52 10.84a11.58 11.58 0 0 0 7.4 5.7c10.17 2.7 14.54-5.72 17.21-14.72a26.82 26.82 0 0 0 .64-2.74"/>
  </g>
  <g mask="url(#b)">
    <path d="M47.1 18.9a2.07 2.07 0 0 1-.27-4.13l43.91-5.86a2.08 2.08 0 0 1 .55 4.09l-43.91 5.89h-.28"/>
  </g>
  <g mask="url(#b)">
    <path fill="#e55604" d="M66.77 30.92a.59.59 0 0 1-.22-.05.5.5 0 0 1-.24-.66c1.57-3.17 3.63-6.6 7-8.06a17.25 17.25 0 0 1 2.83-.84 10.41 10.41 0 0 0 3.7-1.31c2.21-1.51 3.79-5.94 3-8.47-.66-2.19-3-3.36-7.24-3.6-1.94-.1-5.17.13-6.09 1.2a1 1 0 0 0-.2 1 1.06 1.06 0 0 0 .84.67 4.43 4.43 0 0 0 1.21 0h.32a4.65 4.65 0 0 1 2.34.35 2.14 2.14 0 0 1 1.34 2.35v.33l-.34.08a50.19 50.19 0 0 1-8.39 1.42.49.49 0 1 1-.06-1A48.06 48.06 0 0 0 74.38 13a1.23 1.23 0 0 0-.8-1 3.57 3.57 0 0 0-1.81-.25h-.31a5 5 0 0 1-1.5 0 2 2 0 0 1-1.62-1.39 2 2 0 0 1 .4-1.85c1.55-1.8 6.39-1.58 6.94-1.55 1.72.09 7 .38 8.16 4.3.88 2.91-.87 7.82-3.41 9.56a11.6 11.6 0 0 1-4 1.49 15.8 15.8 0 0 0-2.66.79c-3.1 1.33-5 4.57-6.53 7.58a.53.53 0 0 1-.46.28"/>
  </g>
  <g mask="url(#b)">
    <path fill="#e55604" d="M72.43 32.92h-.51l.1-2.38a3.22 3.22 0 0 0-.23-1.72 2.3 2.3 0 0 0-1.73-1 8.42 8.42 0 0 0-2.39.16.52.52 0 0 1-.6-.36.46.46 0 0 1 .41-.52 9.44 9.44 0 0 1 2.73-.1 3.33 3.33 0 0 1 2.5 1.44 3.86 3.86 0 0 1 .34 2.15l-.05 2.3z"/>
  </g>
  <g mask="url(#b)">
    <path fill="#e55604" d="M76.31 34.92h-.1a.51.51 0 0 1-.34-.61 15.89 15.89 0 0 0 .23-4.46 2.82 2.82 0 0 0-.44-1.49c-.44-.53-1.25-.46-2.07-.31a.46.46 0 0 1-.52-.42.51.51 0 0 1 .37-.58c.67-.13 2-.39 2.88.62a3.79 3.79 0 0 1 .68 2.06 17.07 17.07 0 0 1-.25 4.79.47.47 0 0 1-.44.4"/>
  </g>
  <g mask="url(#b)">
    <path fill="#e55604" d="M80.63 34.92a.46.46 0 0 1-.23-.06.5.5 0 0 1-.18-.67 5.74 5.74 0 0 0 .91-2.81 3.32 3.32 0 0 0-1.63-2.5 9 9 0 0 0-3-1 .49.49 0 0 1-.37-.58.46.46 0 0 1 .54-.39A9.92 9.92 0 0 1 80 28a4.3 4.3 0 0 1 2.09 3.3 6.46 6.46 0 0 1-1 3.34.48.48 0 0 1-.41.25"/>
  </g>
  <g mask="url(#b)">
    <path fill="#fc7b01" d="M89.08 9.28v3.62l10.01-4-10.01.38z"/>
  </g>
  <g mask="url(#b)">
    <path d="M89.22 8.54v1.77l4.69-2zm-.57 3.36a.52.52 0 0 1-.33-.12.69.69 0 0 1-.24-.54V7.91a.62.62 0 0 1 .55-.66l8.87-.36a.61.61 0 0 1 .58.54.69.69 0 0 1-.37.74l-8.87 3.69a.43.43 0 0 1-.19.04z"/>
  </g>
  <g mask="url(#b)">
    <path fill="#fdcb44" d="M295.88 161.85a8.7 8.7 0 0 0-3.79.84 8.42 8.42 0 0 0-3.4 2.89c-3.49 5.2-.9 9.91 2.38 12.36 3.73 2.78 9.46 3.54 12.76-.54l.31.25-.31-.25a7.33 7.33 0 0 0 1.29-2.69 10.83 10.83 0 0 0-2.92-10.44 9.41 9.41 0 0 0-6.32-2.42m1.85 19.2a12.2 12.2 0 0 1-7.13-2.46c-3.85-2.87-6.14-8.15-2.57-13.46a9.28 9.28 0 0 1 3.72-3.17 10 10 0 0 1 11 1.71 11.54 11.54 0 0 1 3.15 11.25 8.17 8.17 0 0 1-1.44 3 8.42 8.42 0 0 1-6.72 3.14"/>
  </g>
  <g mask="url(#b)">
    <path fill="#e55604" d="M42.45 221.08h-.09a.41.41 0 0 1-.31-.5c3.47-15 8.65-27.39 14.1-39.86 3.7-8.47 8.19-16.57 12.53-24.4 3.24-5.85 6.6-11.91 9.6-18.06a.42.42 0 0 1 .56-.2.44.44 0 0 1 .19.57c-3 6.18-6.37 12.24-9.63 18.11-4.33 7.81-8.81 15.88-12.49 24.32-5.43 12.43-10.59 24.83-14 39.71a.43.43 0 0 1-.41.32"/>
  </g>
  <g mask="url(#b)">
    <path fill="#fdcb44" d="M73.64 95a.38.38 0 0 1-.28-.12l-4-3.86c-6-5.8-11.17-10.81-14.27-15.42a.39.39 0 0 1 .12-.55.42.42 0 0 1 .57.12C58.87 79.67 64 84.66 70 90.43l4 3.86a.4.4 0 0 1 0 .57.41.41 0 0 1-.3.11"/>
  </g>
</svg>
