<?xml version="1.0" encoding="UTF-8"?>
<svg enable-background="new 0 0 852 280" version="1.1" viewBox="0 0 852 280" xml:space="preserve" xmlns="http://www.w3.org/2000/svg">
<style type="text/css">
	.st0{fill-rule:evenodd;clip-rule:evenodd;fill:#FFFFFF;}
	.st1{fill-rule:evenodd;clip-rule:evenodd;}
	.st2{fill-rule:evenodd;clip-rule:evenodd;fill:#8F94F7;}
	.st3{fill:none;stroke:#000000;stroke-width:1.1;}
	.st4{fill:none;stroke:#000000;stroke-width:1.1;stroke-linecap:round;stroke-linejoin:round;}
	.st5{fill-rule:evenodd;clip-rule:evenodd;fill:#F2D433;}
	.st6{fill:none;stroke:#7DD98A;stroke-width:1.75;}
	.st7{fill:none;stroke:#8F94F7;stroke-width:4.591;stroke-linecap:round;stroke-linejoin:round;}
	.st8{fill:none;stroke:#8F94F7;stroke-width:3.999;stroke-linecap:round;stroke-linejoin:round;}
	.st9{fill:none;stroke:#000000;stroke-width:1.836;}
	.st10{fill:none;stroke:#8F94F7;stroke-width:1.382;stroke-linecap:round;stroke-linejoin:round;}
	.st11{fill:none;stroke:#000000;stroke-width:1.382;stroke-linecap:round;stroke-linejoin:round;}
	.st12{fill:none;stroke:#000000;stroke-width:3.26;stroke-linecap:round;stroke-linejoin:round;}
	.st13{fill-rule:evenodd;clip-rule:evenodd;fill:#DB5C59;}
	.st14{fill:none;stroke:#DB5C59;stroke-width:1.292;}
	.st15{fill:none;stroke:#000000;stroke-width:2.213;}
	.st16{fill:none;stroke:#000000;stroke-width:2.173;stroke-linecap:round;stroke-linejoin:round;}
	.st17{fill-rule:evenodd;clip-rule:evenodd;fill:#F2D430;}
	.st18{fill:none;stroke:#F2D430;stroke-width:1.277;}
	.st19{fill:none;stroke:#8F94F7;stroke-width:1.711;stroke-linecap:round;stroke-linejoin:round;}
	.st20{fill:none;stroke:#000000;stroke-width:1.648;}
	.st21{fill:none;stroke:#FFFF66;stroke-width:1.884;}
	.st22{fill:none;stroke:#000000;stroke-width:1.884;stroke-linecap:round;stroke-linejoin:round;}
	.st23{fill-rule:evenodd;clip-rule:evenodd;fill:#FFFF66;}
	.st24{fill:none;stroke:#000000;stroke-width:1.73;}
	.st25{fill:none;stroke:#000000;stroke-width:0.942;}
</style>
	<g transform="translate(-288 -168)">
		<g transform="translate(288 168)">
					<path class="st0" d="m156.8 149.7c0 38.1-32.5 63.8-76.2 63.8-37 0-64.7-15.4-80.6-49.6l36.4-22.6c14.3 23.5 30.8 29.4 48.4 29.1 12.6 0 22.1-5.6 22.1-16.8 0-9.5-8.1-17.9-44.5-27.2-40-10.6-56.3-30-56.3-62.7 0-35 28-63.3 73.4-63.3 38.1 0 60.8 15.1 75.9 38.6l-36.1 25.5c-11.2-15.4-26.9-20.7-41.7-20.7-11.8 0-23 5.3-23 17.6 0 10.4 7.8 17.1 37 24.6 43.4 11.3 65.2 29.5 65.2 63.7zm156.5 58.8h-47.9v-203h47.9v203zm265.4-58.8c0 38.1-32.5 63.8-76.2 63.8-37 0-64.7-15.4-80.6-49.6l36.4-22.7c14.3 23.5 30.8 29.4 48.4 29.1 12.6 0 22.1-5.6 22.1-16.8 0-9.5-8.1-17.9-44.5-27.2-40-10.6-56.3-30-56.3-62.7 0-35 28-63.3 73.4-63.3 38.1 0 60.8 15.1 75.9 38.6l-36.1 25.5c-11.2-15.4-26.9-20.7-41.7-20.7-11.8 0-23 5.3-23 17.6 0 10.4 7.8 17.1 37 24.6 43.4 11.4 65.2 29.6 65.2 63.8zm189.3 15.4c23.5 0 36.1-14 36.1-42.8v-116.8h47.9v116.2c0 59.9-29.1 91-84 91-54.6 0-84-31.1-84-91v-116.2h47.9v116.8c0 28.8 12.9 42.8 36.1 42.8z"/>
					<path class="st1" d="m156.8 149.7c0 38.1-32.5 63.8-76.2 63.8-37 0-64.7-15.4-80.6-49.6l36.4-22.6c14.3 23.5 30.8 29.4 48.4 29.1 12.6 0 22.1-5.6 22.1-16.8 0-9.5-8.1-17.9-44.5-27.2-40-10.6-56.3-30-56.3-62.7 0-35 28-63.3 73.4-63.3 38.1 0 60.8 15.1 75.9 38.6l-36.1 25.5c-11.2-15.4-26.9-20.7-41.7-20.7-11.8 0-23 5.3-23 17.6 0 10.4 7.8 17.1 37 24.6 43.4 11.3 65.2 29.5 65.2 63.7zm156.5 58.8h-47.9v-203h47.9v203zm265.4-58.8c0 38.1-32.5 63.8-76.2 63.8-37 0-64.7-15.4-80.6-49.6l36.4-22.7c14.3 23.5 30.8 29.4 48.4 29.1 12.6 0 22.1-5.6 22.1-16.8 0-9.5-8.1-17.9-44.5-27.2-40-10.6-56.3-30-56.3-62.7 0-35 28-63.3 73.4-63.3 38.1 0 60.8 15.1 75.9 38.6l-36.1 25.5c-11.2-15.4-26.9-20.7-41.7-20.7-11.8 0-23 5.3-23 17.6 0 10.4 7.8 17.1 37 24.6 43.4 11.4 65.2 29.6 65.2 63.8zm189.3 15.4c23.5 0 36.1-14 36.1-42.8v-116.8h47.9v116.2c0 59.9-29.1 91-84 91-54.6 0-84-31.1-84-91v-116.2h47.9v116.8c0 28.8 12.9 42.8 36.1 42.8z"/>
			<g transform="translate(382 94)">
					<g transform="translate(0 28.256)">
						<path class="st2" d="m10.4-9.9c-0.7-1.3-1.5-2.8-2.8-3.6-0.1-0.1-0.2-0.1-0.3-0.1-0.2 0-0.4 0.2-0.5 0.4-0.6 1.1-0.9 2.4-0.9 3.6-0.1 1.9 0.1 3.9 1.1 5.6 1.1 2 3.3 3.5 5.6 3.9 1.5 0.2 1.6-0.4 1.2-1.5-0.4-1.3-0.8-2.6-1.3-3.9-0.6-1.5-1.4-3-2.1-4.4"/>
						<path class="st2" d="m40.9-47.4c-0.4 0.5-0.9 1.3-1.4 2.1-0.2 0.4-0.5 0.8-0.7 1.3l-0.7 1.3c-1 1.8-1.9 3.8-2.8 5.7-1.9 3.9-3.7 7.9-5.7 11.9s-4 8-6.4 12c-1.2 2-2.5 4-4.1 5.9-0.8 1-1.7 2-2.7 2.9-1.1 0.9-2.2 1.9-3.8 2.7-2.1 1-4.6 0.2-5.6-1.8-0.9-1.8-0.4-4 1.3-5.1l0.4-0.2c0.4-0.3 0.9-0.7 1.5-1.3 0.5-0.6 1.1-1.3 1.6-2.1 1-1.6 2-3.4 2.9-5.2 1.8-3.7 3.4-7.7 4.9-11.7s3-8.1 4.5-12.3l2.4-6.3 0.7-1.6c0.3-0.6 0.5-1.1 0.8-1.7 0.5-1.1 1.1-2.3 1.9-3.6v-0.1c1.9-3 6-4 9.1-2.2s4.1 5.8 2.2 8.8c0 0.3-0.1 0.5-0.3 0.6"/>
						<path class="st1" d="m64.9 20c0.3 1.8 0 3.7-1.1 5.2-1.9 2.9-5.3 3.1-8.5 2.6-8.9-1.2-17.8-2.4-26.7-3.6-3.3-0.5-7.3-1.3-8.5-4.4-0.5-1.2-0.4-2.6-0.3-3.9 0.1-1.7 0.4-3.5 1.4-4.8 2-2.6 6.1-2.5 9.4-2.1 8 1 15.9 2 23.9 3.2 2.5 0.4 5.1 0.2 7 1.9 1.6 1.4 2.8 3.2 3.2 5.3 0.2 0.2 0.2 0.4 0.2 0.6"/>
						<path class="st3" d="m64.9 20c0.3 1.8 0 3.7-1.1 5.2-1.9 2.9-5.3 3.1-8.5 2.6-8.9-1.2-17.8-2.4-26.7-3.6-3.3-0.5-7.3-1.3-8.5-4.4-0.5-1.2-0.4-2.6-0.3-3.9 0.1-1.7 0.4-3.5 1.4-4.8 2-2.6 6.1-2.5 9.4-2.1 8 1 15.9 2 23.9 3.2 2.5 0.4 5.1 0.2 7 1.9 1.6 1.4 2.8 3.2 3.2 5.3 0.2 0.2 0.2 0.4 0.2 0.6z"/>
						<path class="st1" d="m60.7 22.9c-0.2 10.4-0.5 20.8-0.9 31.2l-0.6 15.6-0.7 15.6-0.2 3.9c-0.1 1.3-0.1 2.6-0.2 4l-0.1 2.1-0.2 2c-0.1 1.3-0.3 2.7-0.4 4-0.6 5.3-1.4 10.5-2.2 15.7-1.6 10.4-3.5 20.7-5.6 30.9-0.3 1.3-1.6 2.1-2.9 1.9-1.2-0.2-2-1.3-2-2.4l0.8-15.6c0.3-5.2 0.5-10.4 0.7-15.6s0.4-10.4 0.5-15.5v-3.8-1.9l-0.1-1.8-0.3-7.7-0.6-15.6-0.6-15.6c-0.2-10.6-0.5-21-0.7-31.4-0.1-4.3 3.5-7.9 8-8s8.2 3.4 8.3 7.7v0.3z"/>
						<path class="st1" d="m48.2 144.4s-8.5 2.6-14.4 10.6c9.1-0.9 15.2-4 15.2-4 1.9-0.5 2.7-2.7 1.5-4.2l-2.3-2.4z"/>
						<path class="st4" d="m48.2 144.4s-8.5 2.6-14.4 10.6c9.1-0.9 15.2-4 15.2-4 1.9-0.5 2.7-2.7 1.5-4.2l-2.3-2.4z"/>
						<path class="st1" d="m39.8 139.9l2.7 7.7 3.3-0.2-0.9-3.7c-0.6-2.3-2.7-3.9-5.1-3.8"/>
						<path class="st4" d="m39.8 139.9l2.7 7.7 3.3-0.2-0.9-3.7c-0.6-2.3-2.7-3.9-5.1-3.8z"/>
						<path class="st1" d="m33.1 20.5l-1.6 3.4-1.6 3.5c-1.1 2.3-2.1 4.7-3.1 7-2 4.7-4 9.4-5.9 14.2-1.9 4.7-3.7 9.5-5.3 14.2-0.8 2.4-1.5 4.8-2.2 7.1-0.6 2.4-1.2 4.7-1.6 6.9-0.2 1.1-0.3 2.2-0.4 3.2v0.7 0.7c0 0.5 0.1 1 0.1 1.6 0.3 2.2 0.8 4.6 1.4 6.9 1.2 4.8 2.8 9.7 4.5 14.5s3.5 9.7 5.4 14.5c0.9 2.4 1.9 4.8 2.8 7.2l2.9 7.2c0.5 1.2-0.1 2.6-1.4 3.1-1.1 0.4-2.4 0-3-1-5.5-9-10.6-18.2-15.2-27.8-2.3-4.8-4.5-9.6-6.4-14.7-0.9-2.6-1.8-5.2-2.5-8.1-0.2-0.7-0.3-1.5-0.4-2.3-0.1-0.4-0.1-0.8-0.1-1.3 0-0.4-0.1-0.8-0.1-1.2-0.1-1.6 0-3.1 0.1-4.5 0.5-5.8 1.6-11.1 2.9-16.3s2.8-10.3 4.5-15.4c1.6-5 3.4-10 5.3-15 0.9-2.5 1.9-4.9 2.9-7.4 0.5-1.2 1-2.5 1.5-3.7l1.6-3.7c1.7-4 6.4-6 10.6-4.3 4.2 1.6 6.2 6.2 4.5 10.3 0 0.1-0.1 0.1-0.1 0.2l-0.1 0.3z"/>
						<path class="st1" d="m26.6 132.1c-1.1 2.4-1.6 5.2-1.9 7.8 0 1-0.3 2.1-0.3 3.1 0 0.2 0 0.4-0.1 0.6-0.3 0.6-1.5 1-2.1 1.4-1 0.7-1.9 1.5-2.7 2.3-0.2 0.2-0.3 0.5-0.1 0.6 0.1 0.1 0.2 0 0.3 0 2.6-0.2 5.2 0 7.8-0.4 0.8-0.1 1.6-0.3 2.2-0.8 0.4-0.4 0.6-0.8 0.9-1.3 0.7-1.6 1.2-3.4 1.3-5.2 0-1.5-0.1-2.9 0.6-4.3 0.9-1.7-0.3-3.7-2.3-3.8h-3.6z"/>
						<path class="st4" d="m26.6 132.1c-1.1 2.4-1.6 5.2-1.9 7.8 0 1-0.3 2.1-0.3 3.1 0 0.2 0 0.4-0.1 0.6-0.3 0.6-1.5 1-2.1 1.4-1 0.7-1.9 1.5-2.7 2.3-0.2 0.2-0.3 0.5-0.1 0.6 0.1 0.1 0.2 0 0.3 0 2.6-0.2 5.2 0 7.8-0.4 0.8-0.1 1.6-0.3 2.2-0.8 0.4-0.4 0.6-0.8 0.9-1.3 0.7-1.6 1.2-3.4 1.3-5.2 0-1.5-0.1-2.9 0.6-4.3 0.9-1.7-0.3-3.7-2.3-3.8h-3.6z"/>
						<path class="st1" d="m16.8 138l8.2 1.9 1.6-2.8-3.7-1.3c-2.3-0.8-4.9 0.2-6.1 2.2"/>
						<path class="st4" d="m16.8 138l8.2 1.9 1.6-2.8-3.7-1.3c-2.3-0.8-4.9 0.2-6.1 2.2z"/>
						<path class="st5" d="m70.1-56.3c3 0.9 6 2.3 8 4.7 1.8 2.1 2.7 4.8 3.1 7.4s-0.2 4.2-0.9 6.6c-0.8 3-1.6 6.1-2.7 9-0.8 2.2-2.2 4-2.7 6.3-1.3 6.4-2.2 12.8-3.4 19.2-1.2 6.6-2 13.3-3 19.9 0 0.2-0.1 0.5-0.2 0.7-0.2 0.2-0.5 0.3-0.8 0.4-4.4 1.1-8.9 0.1-13.3 0-4.5-0.2-9-0.4-13.4-0.9-5.2-0.6-10.4-1.4-15.4-3-2.6-0.8-5.2-1.8-7.6-2.9-3.1-1.5-2-2.4-1.3-5.3 0.6-2.6 1.3-5.2 2-7.8 3.9-15.3 7.7-30.5 11.6-45.8 1.1-4.5 3.2-11.3 9.2-11.6 0.5 0 1.1 0 1.6 0.1 1.9 0.2 2.9 1 4.5 1.7 4 1.7 7.1 0.2 11.1 0 4.6-0.4 9.2 0 13.6 1.3"/>
					</g>
					<g transform="translate(16.891 28.884)">
						<path class="st1" d="m51.3-42.8c-0.3 1.6 1.8 5.1 2.3 6.5 1.3 3.6 2.5 7.3 3.9 10.8 1 2.5 1.4 4 1.4 6.8 0 3.2-0.1 6.3-0.3 9.5-0.2 6.3-0.6 12.6-1.2 18.9-0.2 2.3-0.4 4.6-1.3 6.7-1.6 3.7-5.2 6.6-9.3 7.3-2.1 0.4-4.5 0.1-6.1-1.3-2.3-2-0.9-4.6-0.4-7 0.7-3.2 1.2-6.4 1.8-9.7 2-10.3 3.9-20.6 5.9-30.9 1-5.9 2.2-11.8 3.3-17.6"/>
					</g>
						<path class="st2" d="m46.6-12.5c-1.1 0.8-2.5 1.3-3.8 1.4-6.1 0.2-2.4-9.3-4.7-12.6-1.5-2.1-4.8-2.5-7-3.4-2.7-1.1-3.7-3.6-4.7-6-0.9-2.2-1.6-4.6-2.2-6.9-0.8-3.3-1.1-7.1 1-9.7 2.3-2.8 7.2-3.3 10.4-1.6 3.3 1.8 7.7 3.5 9.4 7 1.1 2.3 0.9 5 1.6 7.4 0.7 2.6 2.1 4.3 4 6.2 2.4 2.3 4.4 1.5 7.3 2.5 3.9 1.3 1.4 3.3-1 4.4-2 0.9-4.6 2.8-6 4.4-1.5 1.8-2 4.3-3.6 6-0.1 0.4-0.4 0.7-0.7 0.9"/>
						<polygon class="st1" points="-0.8 1.9 26.8 7.8 42.2 36.6 16.8 31.3"/>
						<polygon class="st1" points="-0.8 1.9 1.9 1 27.4 6.3 42.9 34.9 42 36.6"/>
						<path class="st6" d="m1.5 2.8c0.4 0 24.1 5.3 24.1 5.3l15 26.4"/>
						<path class="st2" d="m40.9 24.9c-1.1-0.6-2.9-2.5-4.2-2.4-0.4 0-0.8 0.2-1.1 0.4-0.9 0.5-1.8 1-2.6 1.6-0.6 0.4-1.8 0.9-2 1.6-0.2 0.5 0.3 0.9 0.4 1.3 0.3 0.7 0.3 1.6 0.3 2.4-0.1 0.5-0.1 0.7-0.6 0.9s-1.7 0.8-1.8 1.4c1.1 0.5 2.3 0.6 3.4 0.7 1.2 0.1 2.3 0.3 3.5 0.7 2.4 0.7 4.7 1.7 7.3 2.1h0.4c0.2-0.1 0.3-0.2 0.5-0.3s0.4-0.2 0.5-0.5c0.7-1 1.3-2.1 1.6-3.3 0.2-0.7 0.2-1.4 0-2.1-0.1-0.5-0.4-1.2-0.9-1.6-0.7-0.5-1.6-0.9-2.3-1.4-0.8-0.6-1.6-1.1-2.4-1.5"/>
						<path class="st7" d="m40.5 26.3c-1-0.5-1.8-1.7-2.5-2.7-0.4-0.5-0.7-1.1-1-1.6-0.5-0.6-1-1.2-1.5-1.9-0.8-1.1-1-2.4-1.2-3.7"/>
						<path class="st7" d="m35.4 22.8c-1.4 0.9-4 0.9-4.2 0.8-0.2 0-0.4-0.1-0.5-0.1-0.7-0.2-1.4-0.4-2-0.7-0.8-0.3-1.9-1.1-2.1-1.2m7.7 3.7c-1.1 0.2-2 0.4-3.1 0.5-2.2 0.2-6.4-1-8.3-2m10.9 3.5c-1.4 0.6-2.6 0.6-4.2 0.5s-4.4-0.6-4.9-1.1m8.7 3.3c-1.9 1.4-4.7 0.8-6.8 0.4m-19.3-12.6c0.3 1.3 2.2 3.2 3.4 3.9 1.7 1 3.6 1.3 5.6 1.5m-8.1-2.3c0.3 1.3 1.3 2.4 2.5 3.1 1.7 1 3.6 1.3 5.6 1.5"/>
						<path class="st8" d="m10.1 22.6c0.3 1.3 1.1 2.7 2.1 3.5 1.4 1.1 2.4 1.8 4 2.2"/>
						<path class="st9" d="m29.5-30.2c1 0.2 2.1 0.5 3.1 0.2s1.7-1.2 2.2-2.1 0.8-2 0.9-3"/>
						<path class="st1" d="m13.7-52.5c-4.7 4.8-7.6 11.3-8 17.9 2-2.1 3.9-4.2 5.9-6.4-0.9 1.8-0.8 4-0.1 6 0.6 1.9 1.8 3.7 2.9 5.4 0.5-3.4 1.9-6.3 4.2-8.9 0.1 0.8 0.5 1.5 0.9 2.2 0.9 1.5 1.7 3 2.6 4.5 0.1-1.6 0.2-3.2 0.4-4.8 0.5 0.6 1.1 1 1.7 1.5 0.5 0.4 1.3 1.6 2.1 1.5-0.3-2.2-1.2-4.4-1.9-6.5 0.1 0.2 4.2-1.1 4.6-1.3 1.4-0.7 2.7-1.5 3.9-2.4 0.6-0.5 1.2-0.9 1.7-1.4 0.4-0.3 1-1.5 1.5-1.5 0.6 0 1.1 2.4 1.3 2.9 0.9 2.4 1.8 4.7 2.8 7.1 0.1 0.2 0.1 0.3 0.3 0.4s0.4 0.1 0.6 0.1 2.4-0.2 2.5-0.2c-0.3-0.2-0.5-1.6-0.6-2-0.2-0.8-0.5-1.5-0.7-2.2-0.4-1.3-1.2-2.3-1.5-3.6-0.2-0.7-0.2-1.5 0.4-1.9 0.4-0.3 1.1-0.3 1.6 0s0.7 0.8 0.9 1.3c0.3 0.9 0.3 1.9 0 2.8 0 0.1-0.1 0.3-0.1 0.4 0 0.2 0.1 0.3 0.2 0.4 1.9 2.5 3.1 5.5 4.7 8.3 1.1 2 4 3.7 6.3 2.7 1.3-0.6 2.1-2.2 1.8-3.6-1.9 0.5-4.1 0.1-5.7-1.1 0.7 0.5 2.2-0.9 2.4-1.4-0.5 0.9-4-3.9-4.3-4.3-1.6-2.4-2.8-4.8-4.1-7.4-0.9-1.8-1.8-3.6-2.8-5.4-2.8-5-8.1-6.8-13.7-5.8-4.1 0.8-8.1 2-11.8 3.7-2.9 1.3-5.9 2.9-7.5 5.6 1.3-0.8 3-1.7 4.6-2.6"/>
						<g transform="translate(39.556 37.172)">
							<path class="st2" d="m40.7-54c0.6 3.8 1.3 7.6 2.1 11.4s1.6 7.7 2.4 11.7 1.5 8.1 2 12.1c0.5 4.1 0.9 8.2 1.2 12.3v0.1c0.1 1.9-0.7 3.6-2 4.9-2.1 1.9-4.5 3-6.7 3.7s-4.3 1-6.3 1.2c-4 0.3-7.7 0-11.3-0.5s-7.1-1.3-10.5-2.2c-3.4-1-6.7-2-10.1-3.5-2-0.9-2.9-3.2-2-5.1 0.8-1.8 2.9-2.7 4.8-2.1h0.1c2.9 0.8 6.1 1.5 9.2 1.9 3.1 0.5 6.3 0.7 9.4 0.8s6.1-0.1 8.7-0.7c1.3-0.3 2.5-0.7 3.4-1.1 0.9-0.5 1.5-1 1.8-1.4l-1.9 4.9c-0.3-3.8-0.6-7.6-1.1-11.4s-1.1-7.6-1.9-11.4c-0.7-3.8-1.6-7.7-2.4-11.6-0.8-4-1.6-8-2.2-12.1-0.5-3.5 2-6.8 5.6-7.3 3.8-0.5 7.2 1.9 7.7 5.4"/>
						</g>
						<path class="st1" d="m41.8-24.1c-0.5 1-1 2-1.5 3.1-0.3 0.5-0.5 1.1-0.7 1.6-0.2 0.4-0.3 1-0.6 1.3 0-0.9 0.1-1.9 0-2.8-0.1-0.8-0.5-1.6-0.9-2.3s-1-1.3-1.6-1.8-1.2-0.6-2-0.9c-0.3-0.1-0.7-0.2-1-0.4 0.2-0.2 1 0.1 1.2 0.1 0.4 0.1 0.9 0.1 1.3 0.1 0.7 0 1.5-0.1 2.2-0.3s1.3-0.6 1.9-1.1c0.2-0.2 1.8-1.7 1.6-1.9 0.5 0.6 0.9 1.3 1.3 2.1 0.1 0.1 0.1 0.2 0.1 0.4s-0.1 0.3-0.2 0.5c-0.3 0.7-0.7 1.5-1.1 2.3"/>
			</g>
			<g transform="translate(108 92)">
					<path class="st2" d="m46.3-15c0.7 3.3 1.1 6.5 1.5 9.8s0.7 6.5 1.1 9.8c0.8 6.5 1.7 13 2.8 19.5s2.2 13 3.5 19.5c0.6 3.2 1.3 6.5 2 9.7 0.3 1.6 0.7 3.2 1.1 4.8s0.7 3.2 1.1 4.7v0.1c0.6 2.3-0.9 4.7-3.2 5.3-2.2 0.5-4.5-0.7-5.2-2.9l-0.8-2.5c-0.3-0.8-0.5-1.6-0.8-2.4-0.5-1.6-1-3.2-1.4-4.9-0.9-3.3-1.8-6.5-2.6-9.8s-1.6-6.5-2.4-9.8-1.5-6.6-2.2-9.9c-1.4-6.6-2.6-13.3-3.6-20-0.5-3.4-1-6.7-1.3-10.1s-0.5-6.7-0.4-10.1c0.1-3 2.7-5.4 5.7-5.3 2.5 0.2 4.6 2 5.1 4.5z"/>
					<path class="st2" d="m61.3 74.1c0 0.8 0 1.7-0.1 2.5-0.1 0.9-0.3 1.8-0.8 2.6-0.4 0.9-1.1 1.6-1.8 2.1s-1.4 0.9-2 1.3c-0.5 0.3-1.1 0.2-1.4-0.3-0.3-0.4-0.2-1 0.2-1.3 0.7-0.5 1.3-0.9 1.8-1.4 0.5-0.4 0.8-0.9 1.1-1.4 0.2-0.5 0.3-1.2 0.4-1.8 0-0.7 0-1.4-0.1-2.1v-0.1c-0.1-0.8 0.5-1.4 1.2-1.5 0.8-0.1 1.5 0.5 1.5 1.2v0.2"/>
					<path class="st2" d="m59.8 74c0.1 0.8 0.3 1.6 0.2 2.6 0 0.2-0.1 0.5-0.1 0.7s-0.2 0.5-0.3 0.8c0 0.1-0.1 0.3-0.2 0.4s-0.2 0.3-0.3 0.4c-0.3 0.2-0.5 0.5-0.8 0.6-0.3 0.2-0.6 0.2-0.9 0.3h-0.8c-0.5 0-0.9-0.1-1.4-0.3-0.8-0.2-1.6-0.6-2.3-0.9-0.5-0.2-0.7-0.8-0.4-1.2 0.2-0.4 0.7-0.6 1.2-0.4 0.7 0.2 1.4 0.5 2 0.6 0.3 0.1 0.6 0.1 0.9 0.1s0.5-0.1 0.5-0.1c0.1 0 0-0.1 0.1-0.1v-0.1-0.1s0.1-0.1 0-0.3v-0.4c0-0.5-0.2-1.2-0.3-1.8v-0.1c-0.2-0.7 0.3-1.5 1-1.7 0.8-0.2 1.6 0.3 1.9 1v0"/>
					<path class="st2" d="m61.2 73.4c0.1 0.8 0.3 1.7-0.1 2.5-0.6 1.2-2.2 1.5-3.5 1.8-1 0.2-2 0.3-2.8-0.3-0.4-0.3-0.6-0.8-0.8-1.3-1.5-3.5-4.2-13-4-14.8 0.5-3.7 4.5-7.1 7.1-2.8 2.8 4.6 3.3 9.7 4.1 14.9"/>
					<path class="st10" d="m61.2 73.4c0.1 0.8 0.3 1.7-0.1 2.5-0.6 1.2-2.2 1.5-3.5 1.8-1 0.2-2 0.3-2.8-0.3-0.4-0.3-0.6-0.8-0.8-1.3-1.5-3.5-4.2-13-4-14.8 0.5-3.7 4.5-7.1 7.1-2.8 2.8 4.6 3.3 9.7 4.1 14.9z"/>
					<path class="st1" d="m46.9-18.5c0.4 0.9 0.8 1.7 1.1 2.6s0.6 1.8 0.8 2.6c0.5 1.8 0.9 3.5 1.2 5.3s0.6 3.6 0.8 5.4c0.1 0.9 0.2 1.8 0.2 2.7 0 0.5 0.1 0.9 0.1 1.4v0.3s-0.1 0.2-0.3 0.4c-0.1 0-0.1 0.1-0.2 0.1l-0.2 0.1-0.2 0.1-0.3 0.1c-0.1 0-0.2 0.1-0.4 0.1l-0.5 0.4-0.5 0.1c-0.1 0-0.4 0.1-0.6 0.2-2.8 0.8-5.8 1.1-8.5 1.1h-0.6-1-0.4-0.3l-0.1-0.3-0.3-0.1c-0.1 0-0.1 0-0.2-0.1-0.2-0.1-0.4-0.2-0.4-0.3s0-0.2-0.1-0.3c-0.1-0.4-0.2-0.9-0.2-1.3-0.2-0.9-0.3-1.8-0.4-2.7-0.3-1.8-0.4-3.6-0.6-5.4-0.1-1.8-0.2-3.6-0.1-5.5 0-0.9 0.1-1.8 0.2-2.8 0.1-0.9 0.2-1.9 0.4-2.8 0.7-3.3 4-5.5 7.3-4.7 1.9 0.4 3.4 1.7 4.3 3.3"/>
					<path class="st2" d="m52.4 52.8c-0.3 5.1-0.7 10.2-1 15.3l-1.1 15.3-0.6 7.7-0.6 7.7-1.3 15.3c-0.9 10.2-1.8 20.5-2.8 30.7l-1.5 15.3-0.8 7.7c-0.3 2.6-0.6 5.1-0.9 7.7-0.2 1.3-1.3 2.2-2.5 2-1.1-0.1-2-1.1-2-2.2-0.1-2.6-0.1-5.1-0.2-7.7l-0.2-7.7-0.2-15.4c-0.1-10.3-0.1-20.5-0.1-30.8l0.1-15.4 0.1-7.7 0.1-7.7 0.2-15.4c0.1-5.1 0.2-10.3 0.3-15.4 0.1-4.3 3.6-7.6 7.8-7.5s7.4 3.7 7.3 8c-0.1 0-0.1 0.1-0.1 0.2"/>
					<path class="st2" d="m30.2 55.1c-1.1 9.8-2.4 19.6-3.7 29.4s-2.7 19.6-4 29.4c-1.4 9.8-2.8 19.6-4.3 29.3-1.5 9.8-3.1 19.5-4.8 29.3-0.2 1.3-1.4 2.1-2.7 1.9-1.2-0.2-2-1.2-1.9-2.3 0.2-9.9 0.5-19.8 0.9-29.7s0.9-19.7 1.4-29.6 1.1-19.7 1.7-29.6 1.3-19.7 2.1-29.5c0.3-4.3 4-7.4 8.3-7.1s7.4 4 7.1 8.3c-0.1-0.1-0.1 0.1-0.1 0.2"/>
					<path class="st1" d="m16.5 62.4c-5.6-1.6-3.5-5.9-5.1-10.1-0.5-1.3-1.4-2.5-1.8-3.8-0.5-1.7-0.3-3.5 0.1-5.3 1.1-5.1 3.3-10 6.4-14.2l33.6-1.4c1.2-0.1 3.3 17.1 3.5 18.9 0.2 2 0.3 3.8 0.1 5.8-0.3 3.5 2.1 10.6-2.9 11.2-3.7 0.5-6.7 0.8-10.5 0.2-4.1-0.6-3.6-2.6-3.9-6.3 0-0.3-0.1-0.6-0.3-0.8-0.3-0.2-0.7-0.2-1-0.2-1.5 0.1-3.2 0.4-3.8 1.7-0.2 0.5-0.3 1-0.3 1.6-0.2 4-0.4 4.1-4.5 3.9-3.1-0.1-6.4-0.3-9.6-1.2"/>
					<path class="st1" d="m36.4 37.6c4.8-0.2 9.7-0.2 14.6-0.2 0.3 0 0.6 0 0.8-0.3 0.1-0.1 0.1-0.3 0.1-0.5-0.2-5.1-1.4-9.7-2.8-14.6-1-3.5-2.9-7.1-2.3-10.8 0.1-0.8 0.5-1.6 0.8-2.4 1.4-3.3 2.8-6.8 2.6-10.4-0.1-1.5-0.4-2.9-0.8-4.3-1.5-5.4-3.4-10.8-6.5-15.4-1.4-2.2-2.4-3.9-5-4.7s-5.3-1-8-0.9c-9.6 0.5-16.7 4.8-19.1 14.5-1.7 6.9-0.5 14.1 0.8 21.1 1.8 9.9 2.2 18.6-0.8 28.3 3.8 1 8.2 0.3 12.2 0.4 4.5 0.1 8.9 0.3 13.4 0.2"/>
					<path class="st2" d="m33-8.5c0.7 1 1.4 2 2 2.9 0.3 0.4 0.5 0.8 1 1.1 0.7 0.4 1.6 0.1 2.2-0.5s0.9-1.3 1.1-2.1c0.9-2.7 1.5-5.4 1.8-8.2 0.1-0.8 0.2-1.7-0.1-2.5-0.4-1-1.2-1.8-1.9-2.6-2.5-3 1-5.7 3.7-6.9 4.2-1.9 5.2-7.3 5.2-11.4 0.1-4.7-1.2-10.2-5.3-13.1-2.5-1.8-6.4-2-8.9 0-3.2 2.6-3 7.7-3.7 11.3-0.8 4-1 11.4-3.4 14.8-0.8 1.1-2.4 1.2-3.1 2.4-1.3 2.2 0.6 3.6 2.3 4.6 2.1 1.3 2.6 3.1 3.7 5.1 1.1 1.7 2.3 3.4 3.4 5.1"/>
					<path class="st1" d="m39.6 171.8h1.2c2.7 0.3 4.9 1.1 7.3 2.5 1 0.6 4.4 2.8 4.4 2.8s-12.3 0.7-13.9-0.3c-1.6-1.1-1.8-3.7 0-4.7 0.2-0.1 0.6-0.2 1-0.3"/>
					<path class="st11" d="m39.6 171.8h1.2c2.7 0.3 4.9 1.1 7.3 2.5 1 0.6 4.4 2.8 4.4 2.8s-12.3 0.7-13.9-0.3c-1.6-1.1-1.8-3.7 0-4.7 0.2-0.1 0.6-0.2 1-0.3z"/>
					<path class="st2" d="m46.7 173.9c0 0.2-0.2 0.4-0.9 0.4-0.9 0.1-1.7 0.1-2.6 0-1.8-0.1-3.6-0.4-5.3-0.6-0.7-0.1-1.4-0.2-1.3-1.1 0-0.6 0.3-1.7 0.8-2.2 0.5-0.6 1.5-0.4 2.3-0.3 1.9 0.3 3.6 1.4 5.2 2.4 0.5 0.3 1.7 0.9 1.8 1.4"/>
					<path class="st1" d="m10.5 171.8h1.2c2.7 0.4 4.9 1.3 7.2 2.7 1 0.6 4.3 2.9 4.3 2.9s-12.4 0.4-14-0.7-1.7-3.6 0.1-4.6c0.5-0.1 0.9-0.2 1.2-0.3"/>
					<path class="st11" d="m10.5 171.8h1.2c2.7 0.4 4.9 1.3 7.2 2.7 1 0.6 4.3 2.9 4.3 2.9s-12.4 0.4-14-0.7-1.7-3.6 0.1-4.6c0.5-0.1 0.9-0.2 1.2-0.3z"/>
					<path class="st2" d="m18.2 173.9c0 0.2-0.2 0.3-0.9 0.4-0.9 0-1.7 0-2.6-0.1-1.8-0.1-3.6-0.5-5.3-0.8-0.7-0.1-1.4-0.3-1.3-1.1 0.1-0.6 0.4-1.6 0.9-2.1 0.6-0.6 1.6-0.4 2.3-0.2 1.9 0.4 3.6 1.4 5.2 2.4 0.4 0.5 1.6 1.1 1.7 1.5"/>
					<path class="st2" d="m12.5 15.7v0.3c2.4-1 4.9-1.9 7.3-2.8 2.9-1.1 5.8-2.2 8.7-3.2 2.9-1.1 5.8-2.1 8.7-3.1 2.5-0.8 5.2 0.5 6.1 2.9 0.8 2.3-0.3 4.8-2.5 5.8-2.8 1.3-5.6 2.5-8.5 3.7-2.8 1.2-5.7 2.4-8.5 3.6-2.9 1.2-5.7 2.3-8.6 3.5-2.9 1.1-5.7 2.3-8.6 3.4h-0.1c-2.7 1-5.8-0.3-6.9-3-0.4-1.1-0.5-2.3-0.1-3.3 0.9-3.2 1.8-6.5 2.8-9.7l1.4-4.8 1.5-4.8 1.5-4.8 0.8-2.4 0.8-2.4c1.1-3.2 2.2-6.4 3.4-9.5 0.8-1.9 3-2.9 4.9-2.2 1.7 0.7 2.7 2.4 2.4 4.1-0.6 3.3-1.3 6.6-2 9.9l-0.5 2.4-0.6 2.5c-0.4 1.6-0.8 3.3-1.2 4.9s-0.8 3.3-1.2 4.9l-1 4.1z"/>
					<polygon class="st1" points="49 -3.4 61.9 -4.4 53.7 15 41.7 17"/>
					<polygon class="st12" points="49 -3.4 61.9 -4.4 53.7 15 41.7 17"/>
					<path class="st2" d="m63.1 0.7c0.7 1.4-1.5 2.7-2.3 3.5-0.1 0.1-0.3 0.3-0.4 0.5s-0.1 0.4-0.1 0.6c0 0.6-0.1 1.2-0.2 1.8 0 0.2-0.1 0.5-0.3 0.7-0.1 0.2-0.4 0.2-0.5 0.4-0.7 0.6-0.2 1.9-0.9 2.4-0.2 0.2-0.5 0.2-0.7 0.4-0.7 0.6 0 1.9-1.2 2.2-0.5 0.1-1 0.1-1.5 0.3-0.7 0.3-1.4 0.5-2.2 0.8-2.7 0.8-5.8 1.4-8.8 1-0.7-0.1-1.5-0.3-2.1-0.1-0.7 0.2-1 0.5-1.7 0.5-1.3 0-2.6-0.4-3.5-1.5-1-1.3-0.8-3.1-0.5-4.7 0.1-0.4 0.2-0.9 0.4-1.2 0.7-1 2.5-1.4 3.6-1.7 0.4-0.1 0.7-0.3 1.1-0.4 3-1.5 5.5-4.2 5.3-7.7 0-0.2 0-0.5 0.1-0.7l0.2-0.2c0.4-0.2 0.9 0 1.3 0.3 0.3 0.3 0.5 0.8 0.6 1.2 0.2 0.5 0.4 1.2 0.3 1.7-0.1 0.4-0.3 0.7-0.3 1.2-0.1 0.9 0.4 1.3 1.3 1.5 0.6 0.1 1.3 0 1.9 0 2.1-0.3 4.2-0.6 6.3-0.9"/>
					<path class="st2" d="m58.1 3.2c0.6-0.1 1.4 0 1.9-0.3 0.6-0.3 0.9-0.9 1.1-1.5 0.1-0.3 0.2-0.6 0.4-0.9 0.7-1 1.5-0.1 1.7 0.7"/>
					<path class="st13" d="m45.2-48.8c1.5 4 2.7 8.8 2 13.1-0.8 4.7-4.2 7.5-7.8 10.2-1 0.7-1.5 2.3-0.4 3 0.5 0.3 1.3 0.2 1.8 0.4 0.7 0.3 1.2 0.9 1.8 1.3 1.2 0.7 2.6 1.2 3.5 2.3 1.5 1.8 1.8 4.1 2.3 6.3 0.6 2.5 1 4.6 1.3 7.2 0 0.3 0.1 0.6 0.3 0.7 0.3 0.2 0.7 0.1 1.1-0.1 5.7-3.3 9-10.2 9.5-16.6 0.2-3-0.2-6.1-1.7-8.8-3.1-5.6-7.2-9.8-8.4-16.3-0.6-3.1-0.4-7.3-3.2-9.5-1.7-1.3-3.6-2.9-5.7-3.3-1-0.2-1.9-0.1-2.9-0.3-3.5-0.9-8.6-0.5-11.4 2.1-1.2 1.1-2 2.6-2.7 4.1-1.4 2.8-2.8 5.4-5 7.6-1.9 1.9-4 3.4-5.9 5.2-6 5.9-8.7 14.9-7 23.1 0.2 1.2 0.6 2.4 1.3 3.5s2.7 2.9 3.4 1.1c1.3-3.3 3.9-12.1 9.1-10.1 1 0.4 1.6 1.3 2.2 2.1 2.8 4.6 4.3 10.1 4.4 15.5 0 0.7-0.2 3.4 1.1 3 0.6-0.2 1.1-1.8 1.2-2.3 1.5-3.6 2.4-7.8 2.8-11.6 0.7-6.3 0.7-12.8 0.4-19.1v-0.9c0.3-1.2 2.2-2 3.1-2.8 1.3-1.1 2.3-2.4 3.3-3.7 1.4-1.8 2.5-3.8 3.3-5.9 0.4-0.9 1.1-2.1 2-1.7 0.6 0.3 0.8 0.8 0.9 1.2"/>
					<path class="st14" d="m45.2-48.8c1.5 4 2.7 8.8 2 13.1-0.8 4.7-4.2 7.5-7.8 10.2-1 0.7-1.5 2.3-0.4 3 0.5 0.3 1.3 0.2 1.8 0.4 0.7 0.3 1.2 0.9 1.8 1.3 1.2 0.7 2.6 1.2 3.5 2.3 1.5 1.8 1.8 4.1 2.3 6.3 0.6 2.5 1 4.6 1.3 7.2 0 0.3 0.1 0.6 0.3 0.7 0.3 0.2 0.7 0.1 1.1-0.1 5.7-3.3 9-10.2 9.5-16.6 0.2-3-0.2-6.1-1.7-8.8-3.1-5.6-7.2-9.8-8.4-16.3-0.6-3.1-0.4-7.3-3.2-9.5-1.7-1.3-3.6-2.9-5.7-3.3-1-0.2-1.9-0.1-2.9-0.3-3.5-0.9-8.6-0.5-11.4 2.1-1.2 1.1-2 2.6-2.7 4.1-1.4 2.8-2.8 5.4-5 7.6-1.9 1.9-4 3.4-5.9 5.2-6 5.9-8.7 14.9-7 23.1 0.2 1.2 0.6 2.4 1.3 3.5s2.7 2.9 3.4 1.1c1.3-3.3 3.9-12.1 9.1-10.1 1 0.4 1.6 1.3 2.2 2.1 2.8 4.6 4.3 10.1 4.4 15.5 0 0.7-0.2 3.4 1.1 3 0.6-0.2 1.1-1.8 1.2-2.3 1.5-3.6 2.4-7.8 2.8-11.6 0.7-6.3 0.7-12.8 0.4-19.1v-0.9c0.3-1.2 2.2-2 3.1-2.8 1.3-1.1 2.3-2.4 3.3-3.7 1.4-1.8 2.5-3.8 3.3-5.9 0.4-0.9 1.1-2.1 2-1.7 0.6 0.3 0.8 0.8 0.9 1.2z"/>
					<path class="st15" d="m37.2-35.1c0.5 1.4 1.7 2.4 3 2.9s2.8 0.3 4-0.5"/>
					<path class="st1" d="m36.2-27.1c-0.3-0.1-0.6-0.3-0.9-0.4 0 0 0.1 0.8 0.1 0.9l0.3 1.2c0.2 0.9 0.5 1.7 0.8 2.5 0 0.1 0.1 0.3 0.3 0.3h0.3c0.6-0.1 1.5 0.2 1.6-0.6 0.1-0.4 0-0.6 0.3-1 0.5-0.7 1.1-1.2 1.8-1.8 0.3-0.3 0.6-0.5 0.9-0.8 0.2-0.2 0.5-0.7 0.7-0.8-2 1-4.2 1.2-6.2 0.5"/>
					<path class="st1" d="m21.1 110.2c-0.1 0.4-0.2 0.7-0.4 0.9-0.4 0.7-0.9 1.4-1.7 1.4-1 0-1.9-1.2-2.9-0.9-0.5 0.1-0.8 0.6-0.9 1-0.5 1.5 0.2 3.1 1.1 4.3 0.5 0.6 1 1.2 1.8 1.4 4.5 1.1 4.8-5.5 4.9-8.1 0.1-1.4 0.2-2.8 0.3-4.1 0-0.2 0-0.5-0.1-0.7-0.7-0.9-2 4.3-2.1 4.8"/>
					<path class="st1" d="m46.4 110.2c-0.1 0.4-0.2 0.7-0.4 0.9-0.4 0.7-0.9 1.4-1.7 1.4-1 0-1.9-1.2-2.9-0.9-0.5 0.1-0.8 0.6-0.9 1-0.5 1.5 0.2 3.1 1.1 4.3 0.5 0.6 1 1.2 1.8 1.4 4.5 1.1 4.8-5.5 4.9-8.1 0.1-1.4 0.2-2.8 0.3-4.1 0-0.2 0-0.5-0.1-0.7-0.6-0.9-1.9 4.3-2.1 4.8"/>
					<path class="st16" d="m51 62.4c0.2 2.8 0.2 5.7-0.2 8.5m-6-124.8c-3.4 11-11.3 18.5-20.3 20.3"/>
			</g>
			<g transform="translate(610 86)">
					<path class="st2" d="m62.3 3.2c-0.4 1.4-0.8 2.8-1.3 4.1-0.4 1.4-0.9 2.7-1.4 4.1-0.9 2.7-1.9 5.4-2.9 8.1s-2.1 5.3-3.3 8c-0.6 1.3-1.2 2.7-1.9 4.1s-1.3 2.7-2.2 4.3l-0.3 0.6s-0.2 0.4-0.4 0.6c-0.3 0.4-0.6 0.9-1 1.4-0.2 0.3-0.5 0.6-0.8 1l-0.3 0.3-0.4 0.4c-0.4 0.3-0.6 0.5-1.3 1-0.6 0.4-1.2 0.7-1.8 0.9s-1.2 0.3-1.7 0.4c-1.1 0.2-2 0.1-2.7 0-1.4-0.2-2.4-0.5-3.1-0.8-0.8-0.3-1.3-0.6-1.9-0.9-1-0.6-1.8-1.2-2.6-1.8-1.5-1.1-2.7-2.2-3.8-3.4-1.1-1.1-2.2-2.2-3.2-3.4-2-2.3-3.8-4.6-5.5-7-0.9-1.2-1.7-2.4-2.4-3.7-0.4-0.6-0.8-1.2-1.1-1.9-0.4-0.6-0.7-1.3-1.1-2-1.5-2.7-0.4-6.1 2.4-7.6 2.1-1.1 4.6-0.8 6.4 0.7l0.1 0.1c4.1 3.6 8.2 7.5 12.1 11.1 1 0.9 1.9 1.8 2.9 2.6 0.9 0.8 1.9 1.6 2.7 2.1 0.4 0.3 0.8 0.5 1 0.6 0.1 0 0.1 0.1 0 0-0.1 0-0.3-0.2-1.1-0.3-0.4 0-0.9-0.1-1.6 0-0.4 0.1-0.7 0.1-1.2 0.3-0.4 0.1-0.8 0.3-1.3 0.6l-0.9 0.6-0.2 0.2-0.1 0.1-0.2 0.2 0.2-0.3 0.2-0.3 0.2-0.3c0.5-0.9 1.1-2.1 1.7-3.3s1.1-2.4 1.7-3.6c1.1-2.5 2.2-5 3.3-7.5 2.2-5.1 4.5-10.2 6.8-15.3 1.6-3.5 5.8-5.1 9.4-3.5 3.3 1.6 4.9 5.1 3.9 8.4"/>
					<path class="st1" d="m34.5 26.3c-0.4-0.4-0.8-1.1-1.5-0.6-0.9 0.7-0.6 2.6-0.4 3.6 0.4 1.4 0.9 2.8 1.4 4.2 1 2.8 2.4 5.4 4.1 7.8 0.2 0.3 0.6 0.7 0.9 0.5l0.3-0.3c1.5-2 1.6-4.8 0.8-7.1-0.8-2.4-2.3-4.4-4-6.2-0.4-0.6-1-1.3-1.6-1.9"/>
					<path class="st1" d="m126.1 177.8c0 1 0 2.1-0.5 3s-1.5 1.6-2.4 2.1c-1.6 1-3.1 1.9-4.9 2.5-1.7 0.5-11.5 2.6-11.4-0.9 0-1.8 3.4-3.4 4.7-4 0.7-0.3 1.4-0.6 1.8-1.2 0.7-1.2-0.7-2.5-1.4-3.7-3.2-4.8 1.8-9.1 6.1-10.4 3.8-1.2 5.5-2.5 6.6 1.8 0.9 3.5 1.4 7.1 1.4 10.8"/>
					<path class="st2" d="m72.2 59c-0.3 9.6-0.9 19.2-1.6 28.8l-0.5 7.2-0.6 7.2c-0.4 4.8-0.8 9.6-1.3 14.4-0.9 9.6-1.9 19.2-3 28.8l-0.9 7.2-0.9 7.2c-0.7 4.8-1.3 9.6-2.1 14.4-0.4 2.5-2.9 4.3-5.6 3.9-2.1-0.3-3.7-1.9-4-3.9-0.8-4.8-1.5-9.6-2.2-14.4l-1-7.2-0.9-7.2c-1.2-9.6-2.2-19.2-3.1-28.8-0.5-4.8-0.9-9.6-1.3-14.4l-0.6-7.2-0.6-7.2c-0.7-9.6-1.4-19.2-1.8-28.8-0.3-8.5 6.6-15.6 15.4-15.9 8.9-0.3 16.3 6.3 16.6 14.8v1.1"/>
					<path class="st2" d="m98.1 64.7c0.2 3.5 0.2 7 0.3 10.5v5.3s0 3.5 0 5.3v5.3l-0.1 5.3c0 3.5-0.2 7-0.3 10.6l-0.9-3.5c1.8 5.3 3.7 10.6 5.4 15.9 0.9 2.6 1.8 5.3 2.6 8 0.9 2.7 1.8 5.3 2.6 8l2.6 8 2.5 8c1.6 5.4 3.3 10.7 4.8 16.2 0.7 2.5-0.8 5.1-3.4 5.7-2.1 0.6-4.3-0.4-5.4-2.1-3-4.8-5.8-9.7-8.7-14.5l-4.2-7.4-4.2-7.3c-1.4-2.4-2.7-4.9-4.1-7.3-1.4-2.5-2.7-4.9-4.1-7.4-2.7-4.9-5.4-9.8-8-14.8-0.2-0.3-0.3-0.6-0.3-0.9l-0.6-2.6c-0.8-3.4-1.6-6.9-2.3-10.3l-1.1-5.2-1-5.2c-0.3-1.7-0.7-3.4-1-5.2-0.3-1.7-0.7-3.5-0.9-5.2-0.6-3.5-1.2-6.9-1.7-10.4-1.2-8.4 4.8-16.2 13.5-17.4s16.7 4.7 17.9 13.2c0 0.5 0.1 1 0.1 1.4"/>
					<path class="st1" d="m78.6 92.1c3 2.9 25 29.9 25 29.9s-4.1-14.2-4.5-15 0-19.4 0-19.4l-20.5 4.5z"/>
					<path class="st1" d="m70.9 87.2l-14.8-4.1s7.7 46.9 9.3 58.8"/>
					<path class="st2" d="m10-2.4c1.3-0.3 2.8-0.2 4.1 0.1 0.8 0.2 1.6 0.6 1.9 1.3s-0.1 1.6 0.3 2.3c0.1 0.1 0.2 0.3 0.2 0.4 0.1 0.4-0.4 0.7-0.8 0.7-1 0.1-1.9-0.7-2-1.7 0-0.2 0-0.3-0.1-0.5-0.2-0.4-0.9-0.3-1.4-0.2-1.1 0.1-2.2-1.2-1.8-2.3"/>
					<g transform="translate(0 50.075)">
						<path class="st1" d="m9.4-44.5l-10.3-13.8 2-1.2s8.3 1.7 8.3 1.9c0 0.3 10.7 19.9 10.7 19.9l-1.7 1-6.6-4.1-2.4-3.7z"/>
					</g>
					<path class="st17" d="m85.7 56.3c0 2.2-0.9 4.5-2.3 6-2.9 3.1-8.7 1.8-12.5 1.8-4.9 0-9.9-0.1-14.8-0.1-2.8 0-6.2-0.3-7.5-2.7-0.5-1-0.6-2.1-0.7-3.2-0.1-1.4-0.1-2.9 0.6-4.1 1.4-2.4 4.7-2.7 7.5-2.7 6.7 0 13.4 0 20.1 0.2 2.9 0.1 7.5-0.8 8.9 2.2 0.5 0.7 0.7 1.6 0.7 2.6"/>
					<path class="st18" d="m85.7 56.3c0 2.2-0.9 4.5-2.3 6-2.9 3.1-8.7 1.8-12.5 1.8-4.9 0-9.9-0.1-14.8-0.1-2.8 0-6.2-0.3-7.5-2.7-0.5-1-0.6-2.1-0.7-3.2-0.1-1.4-0.1-2.9 0.6-4.1 1.4-2.4 4.7-2.7 7.5-2.7 6.7 0 13.4 0 20.1 0.2 2.9 0.1 7.5-0.8 8.9 2.2 0.5 0.7 0.7 1.6 0.7 2.6z"/>
					<path class="st17" d="m84.1 59.2c0.2 1.5 0.2 3 0.2 4.6v4.6c0 1.5-0.1 3-0.1 4.6 0 0.8-0.1 1.5-0.1 2.3l-0.1 1.1c0 0.2 0 0.4-0.2 0.6-0.1 0.2-0.5 0.4-1 0.6-4.4 1.6-9 1.7-13.2 0.4-0.6-0.2-0.9-0.4-1.1-0.5-0.2-0.2-0.2-0.4-0.2-0.6l-0.2-1.1c-0.1-0.8-0.2-1.5-0.3-2.3-0.2-1.5-0.3-3-0.5-4.5l-0.3-4.5c-0.1-1.5-0.1-3-0.1-4.6 0.1-4.5 4-8 8.7-7.9 4.6 0 8.1 3.2 8.5 7.2"/>
					<path class="st17" d="m64.3 58.3c0.1 1.6 0.1 3.2 0.2 4.8v4.8c0 1.6-0.1 3.2-0.1 4.9l-0.1 2.4v1.2c0 0.4 0 0.8-0.9 1.2-4.4 2.2-9.6 2.2-13.8 0.5-0.9-0.4-0.9-0.8-1-1.2l-0.1-1.2-0.3-2.4c-0.2-1.6-0.3-3.2-0.5-4.8l-0.2-2.4-0.2-2.4c-0.1-1.6-0.2-3.2-0.2-4.8 0-4.5 3.8-8.2 8.5-8.2 4.7-0.1 8.4 3.3 8.7 7.6"/>
					<path class="st13" d="m36.7 54c1-6 2.3-12.1 2.8-18.2 0-0.4 0.1-0.7-0.1-1.1-0.3-0.6-1-0.9-1.7-1.2-2.9-1.2-4.8-4-5.5-6.9s-0.3-6 0.5-9c2.3-8.3 7.6-15.3 13.2-21.8 2.1-2.4 3.6-4.1 6.9-4.7 4.5-0.8 9-0.9 13.6-0.7 4 0.1 7.7 0.8 11.6 1.5 3.1 0.5 6.8 1.6 8.3 4.5 1.5 3.1 2 6.9 2.1 10.3 0.2 4.8 0.4 9.5 0.6 14.3 0.2 4.7 0.4 9.4 0.3 14.2s0.2 9.1 1.6 13.8c1 3.4 4.2 4.9 6.6 7.5 5.5 6 8.7 13.7 11.8 21.1 0.3 0.8 0.7 1.7 0.8 2.5 0.2 1.5-0.2 2.9-0.8 4.3-1.8 3.7-5.3 6.3-9.1 7.9s-8 2.2-12.2 2.7c-5.7 0.6-11.5 1-17-0.5-4.3-1.2-8.2-3.5-12.4-5-4.3-1.6-9-2.3-13.3-3.9-2-0.7-5.3-1-6.8-2.6-0.6-0.7-1-1.6-1.3-2.4-2.4-7.2-2.1-15-1.1-22.5 0.1-1.3 0.3-2.7 0.6-4.1"/>
					<path class="st2" d="m65.7 0.8c-0.3 0.4-0.7 0.8-1 1.2-1.4 1.7-12.7 13.2-14.3 9.9-0.3-0.6-0.2-1.4-0.1-2.1 0.7-3.4 3.1-6.3 3.4-9.8 0.2-2.7 0.2-4.9-1.9-6.6-1.9-1.6-4.1-2.7-5-5.1-0.7-1.9-0.7-3.9-0.7-5.9 0-2.8-0.4-5.8 0.2-8.5 0.3-1.2 0.7-2.4 1.1-3.6 0.3-0.9 2-2.7 2-3.5 8.3-10.5 15.2 4.5 16.4 11.4 0.4 2.2 0.7 4.3 1.4 6.4 0.6 2 2.2 3.6 2.8 5.5 1.2 3.5-1.9 7.7-4.3 10.7"/>
					<path class="st2" d="m95.3-51.9c-0.2-0.8-0.4-1.5-0.7-2.1-0.4-0.7-0.7-1.3-1.2-1.8s-1-0.8-1.8-1c-0.7-0.2-1.6-0.4-2.5-0.6-0.6-0.2-1-0.8-0.8-1.3s0.8-0.9 1.3-0.8c0.8 0.2 1.7 0.2 2.7 0.5s2.1 0.7 2.9 1.4 1.5 1.5 1.9 2.3c0.5 0.8 0.9 1.7 1.2 2.5s-0.1 1.6-1 1.9c-0.8 0.3-1.8-0.1-2-1 0.1 0.1 0.1 0.1 0 0z"/>
					<path class="st2" d="m92.9-50.9c-0.1-0.7-0.2-1.5-0.4-2.1-0.1-0.3-0.2-0.5-0.3-0.7-0.1-0.1-0.1-0.2-0.2-0.2s-0.3 0-0.6 0.1-0.6 0.3-0.9 0.4c-0.6 0.4-1.2 0.9-1.8 1.4-0.4 0.4-1 0.3-1.4-0.1-0.3-0.4-0.3-1 0-1.4 0.6-0.6 1.2-1.3 1.9-1.9 0.4-0.3 0.8-0.6 1.2-0.8 0.5-0.2 1.1-0.4 1.8-0.4 0.4 0 0.7 0.1 1.1 0.3l0.9 0.6c0.5 0.5 0.8 0.9 1 1.4 0.5 0.9 0.7 1.8 0.9 2.7 0.2 0.8-0.3 1.7-1.2 1.9-1 0.3-1.8-0.2-2-1v-0.2z"/>
					<path class="st2" d="m98-51.2c-0.2-0.9-0.5-1.9-1.2-2.6-1.1-1-2.8-0.8-4.3-0.5-1 0.2-2.2 0.5-2.7 1.5-0.3 0.5-0.3 1.1-0.3 1.7 0 4.3 1.2 15.5 2.2 17.4 2 3.8 7.6 5.8 8.4 0.1 1-6.1-0.7-11.8-2.1-17.6"/>
					<path class="st19" d="m98-51.2c-0.2-0.9-0.5-1.9-1.2-2.6-1.1-1-2.8-0.8-4.3-0.5-1 0.2-2.2 0.5-2.7 1.5-0.3 0.5-0.3 1.1-0.3 1.7 0 4.3 1.2 15.5 2.2 17.4 2 3.8 7.6 5.8 8.4 0.1 1-6.1-0.7-11.8-2.1-17.6z"/>
					<path class="st2" d="m7.2 9.1c-0.4-0.8-3.4-1.6-3.7-2.5s-0.5-1.9-0.5-2.9 0.4-2.1 0.8-2.9c0.5-0.9 3.6-1.5 4-2.2 0.3-0.5 1-0.7 1.5-0.3 0.5 0.3 0.6 0.9 0.4 1.4-0.4 0.8-0.9 1.5-1.1 2.2-0.3 0.7-0.4 1.3-0.4 1.9s0.2 1.3 0.5 2 0.7 1.3 1.1 2v0.1c0.4 0.7 0.2 1.6-0.5 2s-1.6 0.2-2.1-0.5v-0.3"/>
					<path class="st2" d="m9.7 8.7c-0.5-0.7-1-1.5-1.3-2.4-0.2-0.5-0.3-1-0.3-1.6 0-0.3 0-0.7 0.1-1s0.3-0.7 0.5-0.9c0.5-0.5 1-0.8 1.5-1s0.9-0.3 1.4-0.3c0.9-0.1 1.7-0.1 2.6-0.1 0.5 0 1 0.5 0.9 1 0 0.5-0.4 0.9-0.9 1-0.8 0.1-1.5 0.2-2.2 0.3-0.3 0.1-0.6 0.2-0.9 0.3s-0.4 0.3-0.5 0.4v0.3s0.1 0.4 0.2 0.7c0.3 0.5 0.7 1.1 1.2 1.7s0.5 1.6-0.2 2.1c-0.6 0.5-1.6 0.5-2.1-0.2 0.1-0.3 0.1-0.3 0-0.3"/>
					<path class="st2" d="m7.9 9.4c-0.5-0.8-1.1-1.6-1.1-2.6 0-1.5 1.4-2.5 2.6-3.4 0.9-0.6 1.9-1.2 2.9-0.9 0.6 0.1 1 0.5 1.4 0.9 3.2 2.9 10.6 11.3 11.2 13.2 1.3 4-1 9.3-5.7 6.1-5-3.4-8-8.4-11.3-13.3"/>
					<path class="st19" d="m7.9 9.4c-0.5-0.8-1.1-1.6-1.1-2.6 0-1.5 1.4-2.5 2.6-3.4 0.9-0.6 1.9-1.2 2.9-0.9 0.6 0.1 1 0.5 1.4 0.9 3.2 2.9 10.6 11.3 11.2 13.2 1.3 4-1 9.3-5.7 6.1-5-3.4-8-8.4-11.3-13.3z"/>
					<path class="st20" d="m51.1-18.4c0.9 1.7 3.1 2.5 4.8 1.7 1.7-0.7 2.7-2.9 2.1-4.7"/>
					<path class="st1" d="m59.5-28.4c0.8 0.8 1.3 1.8 1.8 2.9 1.3-0.9 1.6-2.5 0.9-3.9s-2.2-2.3-3.3-3.5c-0.7-0.8-1.2-1.7-2.1-2.2-2.1-1.2-5.5-0.4-7.7 0.2-1.6 0.4-3.1 0.8-4.6 1.6-3.4 1.8-4.8 5.5-3.1 8.9 0.7 1.3 2.3 2.2 3.7 1.8 2.1-0.7 2.6-3.8 4.7-4.5 1-0.3 2-0.1 3 0.1 1.1 0.2 2.4 0.1 3.3-0.6 0.4-0.4 0.8-0.9 1.3-1.1 0.8-0.4 1.6-0.2 2.1 0.3"/>
					<path class="st1" d="m60.1-41.3c3.4 0.7 5.4 3.4 6.9 6.4 0.8 1.6 1.4 3.4 1.7 5.2 0.2 0.9 0.3 1.8 0.3 2.7 0 0.5-0.3 2 0 2.5-0.5-1-1.2-2-2.3-2.4-0.4-0.1-0.8-0.1-1.1-0.3-0.5-0.2-0.9-0.5-1.2-0.8-1.7-1.6-3.1-3.4-4.8-5-1.1-1.1-2.3-2.2-3.7-2.8-1.3-0.6-2.7-0.4-4.2-0.3-0.4 0-0.8 0-1.2-0.1s-0.7-0.5-0.7-0.9 0.3-0.7 0.6-1c1.1-0.9 2.4-1.5 3.7-2.1 1.8-0.7 3.7-1.3 5.5-1.1h0.5"/>
					<path class="st1" d="m70.7-33.9c0.3 0.4 0.6 0.8 0.9 1.3 1.7 2.4 4.6 3.6 7.4 4.4 1.5 0.4 2.5 0.6 4.1 0.5s3.2-0.2 4.7 0.6c1.4 0.7 2.3 2.1 3.1 3.3 0.4 0.6 0.8 1.2 0.9 1.9 0.4 2.1-0.9 4 0.3 6.1 1 1.7 3.4 3 4.8 4.4 0.4 0.4 0.8 0.9 1.1 1.4 0.4 0.8 0.4 1.8 0.4 2.7 0 1.5-0.1 3-0.5 4.4s-1.3 2.8-2.6 3.5c-1.7 0.9-3.9 0.5-5.4-0.6-2.4-1.7-2.3-4.6-4.9-5.8-1.6-0.8-2.8-2.2-4.6-2.6-2.6-0.5-5.3 0.3-7 2.2-1.2 1.5-2 2.7-3 4.3-1 1.8-3.1 3.1-5.2 2.7-2.1-0.5-3.4-2.6-3.4-4.7s1-4 2.1-5.7c0.4-0.6 0.8-1.2 0.9-1.8 0.3-2-2.3-3.4-2.2-5.4 0.1-1.8 2.2-2.7 4-3.2 7.7-2.2 0.6-13.4-1.7-17.2-0.3-0.5-0.9-1.4-0.8-2 0-0.2 0.3-0.4 0.5-0.4 0.1 0 0.2 0.1 0.2 0.1l1.5 1.2c0.4 0.3 0.8 0.6 1.1 1 0.9 0.9 1.7 1.8 2.5 2.8 0.5 0.3 0.6 0.4 0.8 0.6"/>
					<path class="st1" d="m32.2-15.5c-2.1 0.4-4.1 0.9-5.5 2.4-1.2 1.2-1.6 2.9-2.1 4.6-0.5 2-1 4.4 0.5 5.9 0.6 0.6 1.4 0.9 2.2 1.3 1.3 0.5 2.4 0.7 3.7 0.9 1.1 0.1 2-0.5 2.7 1 0.4 0.9 0.2 1.9 0 2.9-0.6 2.3-0.9 6.2 1.7 7.5 1.5 0.8 3.4 0.1 4.7-0.8 3.1-2.3 4.4-6 6.1-9.3 0.8-1.5 1.8-2.9 3.2-3.9 0.9-0.7 2.1-1.1 3.2-1.4 0.1 0 0.2-0.1 0.2-0.2 0.1-0.1 0-0.3-0.1-0.4-1.3-1.7-2.8-3.5-3.9-5.4-1.8-2.9-2.5-6.7-2.4-10.1 0.1-2.8-0.3-5.6-3-7.3-0.3-0.2-0.5-0.3-0.8-0.3-0.6 0.1-0.9 0.7-1 1.3-0.5 2.7 0.3 5.8-1.3 8.2-1.4 2.1-4.2 2.7-6.7 3.1-0.4-0.2-0.9-0.1-1.4 0"/>
					<path class="st21" d="m17.1 5.4c3.2 5.7 8.4 11.4 13.3 15.7 5.2 4.5 11.8 7.8 19.1 6.7 3-0.5 5-1.2 7.2-3.4 7-6.8 7.7-18.2 8.3-27.2 0.4-5.2 0.6-10.4 0.8-15.5m-14.3 12.2c0.3 2.4-1 6.5-1.7 8.8-0.9 2.6-2 5.1-3.3 7.5-2.3 4.2-5.9 8-9.9 10.9-1.6 1.1-2.9 1.7-4.9 1.3"/>
					<path class="st1" d="m86.4 29.6c0.3 0.5 0.5 1 1 1.3s1.1 0.5 1.6 0.1 0.6-1 0.6-1.6c0.2-5.6 0.4-11.1 0.7-16.7 0-0.3 0-0.6-0.1-0.9-0.2-0.5-0.6-0.8-1.1-1-2.8-1.7-5.5-3.3-8.3-5-0.7-0.4-1.5-0.9-2.3-0.8-4.6 0.4 6.6 22.1 7.9 24.6"/>
					<path class="st2" d="m91.6-1.9c-0.4-4.8-0.7-9.5-1-14.2-0.2-2.4-0.3-4.7-0.4-7.1s-0.3-4.7-0.4-7.1c-0.2-4.7-0.4-9.4-0.5-14.1-0.1-2.8 2.2-5.1 5.1-5.1 2.6-0.1 4.8 1.8 5.2 4.2 0.8 4.7 1.6 9.3 2.3 14 0.4 2.3 0.7 4.7 1 7s0.7 4.7 1 7c0.6 4.7 1.3 9.3 1.8 14l1.7 14c0.5 3.9-2.4 7.5-6.4 7.9-1.4 0.2-2.8-0.1-3.9-0.6l-0.7-0.3c-1.8-0.8-3.5-1.6-5.2-2.4-0.9-0.4-1.7-0.8-2.6-1.3-0.9-0.4-1.7-0.9-2.6-1.3s-1.7-0.9-2.5-1.3-1.7-0.9-2.5-1.4l-1.3-0.7c-0.4-0.2-0.8-0.5-1.2-0.8s-0.7-0.6-1.1-1c-0.3-0.4-0.6-0.9-0.8-1.4-1.6-4.4 0.7-9.2 5.2-10.8 0.3-0.1 0.7-0.2 1.1-0.3 0.6-0.1 1.2-0.1 1.7-0.1s1 0.2 1.5 0.3c0.5 0.2 0.9 0.4 1.3 0.6l1.3 0.7c0.9 0.4 1.7 0.9 2.5 1.3 0.1 0.1 0.3 0.2 0.4 0.3z"/>
					<path class="st22" d="m54.3 31.9c3.1 1.4 6.3 2.8 9.6 3.1 3.4 0.3 7-0.9 9-3.7"/>
					<path class="st23" d="m62.2-27.6c-1.6-2.9-3.3-4.8-5.3-5.9-2.9-1.7-6.3-1.6-9.6-0.9-1.5 0.3-2.7 0.9-3.9 1.8-0.3-0.7 1.2-2.5 1.7-3 0.8-0.9 1.9-1.6 3.1-2 3.1-1.1 7-0.6 10.4 1.3 2.5 1.4 4.7 3.8 6.6 7.2l-3 1.5z"/>
					<path class="st23" d="m63.5-27.9c-1.8 1.7-1.8 4.7-1.1 6.8 0.2 0.5 0.4 1.1 0.8 1.5 0.8 1 2.2 1.5 3.5 1.3 0.7-0.1 1.2-0.5 1.5-1.2 0 0 0-0.1 0.1-0.1 0-0.1 0.1-0.1 0.2-0.1 2.4-0.9 2-4.7 1.3-6.4-0.3-0.6-0.7-1.3-1.2-1.7-0.3-0.3-0.6-0.5-1-0.7-0.4-0.1-0.8 0.1-1.1 0-0.1-0.1-0.2-0.1-0.3-0.2-0.4-0.2-0.9-0.1-1.3 0-0.6 0.2-1.1 0.5-1.4 0.8"/>
					<path class="st23" d="m65.9-27.6c-0.5 0.7-0.7 1.9-0.7 2.6 0 0.9 0.2 1.8 0.4 2.7 0.4 1.6 2.2 3.5 3.1 1 0.4-1.2 0.4-2.5 0.2-3.8-0.1-0.9-0.7-2.7-1.6-3.1-0.6-0.2-1.1 0.1-1.4 0.6"/>
					<path class="st24" d="m66.9-28.9c-2.6 0.6-4 3.1-3.7 5.4 0.3 2 0.7 5 3.7 5.2 0.7 0.1 1.4-0.3 2.1-0.6"/>
					<g transform="translate(37.843 232.22)">
						<path class="st1" d="m25.3-48.4c-0.1 0.4-0.2 0.8-0.4 1.2-0.3 0.4-0.7 0.7-1.2 1-1.8 0.9-3.8 1.5-5.8 2-4.7 1.3-9.5 2.2-14.4 2.7-1 0.1-2.1 0.2-2.9-0.3-1.4-0.8-1.7-2.8-1-4.2s2.2-2.4 3.6-3.2 3-1.5 4.1-2.7c1.8-1.9 3-4.9 5.1-6.5 2.8-2.1 3.2 0.4 5.6 1.9 3 1.9 3.4-2.8 6-1.1 2.2 1.4 1.7 7.2 1.3 9.2"/>
					</g>
					<path class="st25" d="m50.4-7.6c1.3 1.5 4.6 3 6.4 2.3"/>
			</g>
		</g>
	</g>
</svg>
