<svg xmlns="http://www.w3.org/2000/svg" width="100" height="31" viewBox="0 0 100 31">
  <title>logo-descomplica</title>
  <path d="M24.22.58,3.27,4.51A4.22,4.22,0,0,0,0,8.73V22a4.22,4.22,0,0,0,3.25,4.25l21,4.16c2.66.51,4.83-1.47,4.83-4.31V5.1C29.05,2,26.88.09,24.22.58Z" style="fill: #00e78e"/>
  <g>
    <path d="M34.92,13.21a2.16,2.16,0,0,1,2,1.34l1.89-.93a4,4,0,0,0-4-2.44,4.29,4.29,0,0,0-4.31,4.27c0,.11,0,.23,0,.35a4.29,4.29,0,0,0,3.95,4.61h.35a4,4,0,0,0,4-2.44l-1.89-.93a2.13,2.13,0,0,1-2,1.33c-1.26,0-2-1-2-2.58S33.66,13.21,34.92,13.21Z"/>
    <path d="M44,11.18a4.39,4.39,0,0,0-4.54,4.25,2.29,2.29,0,0,0,0,.37,4.55,4.55,0,0,0,9.1,0h0a4.41,4.41,0,0,0-4.19-4.62Zm0,7.2c-1.38,0-2.22-1-2.22-2.58s.84-2.59,2.22-2.59a2.3,2.3,0,0,1,2.25,2.59A2.29,2.29,0,0,1,44,18.38Z"/>
    <path d="M60.3,11.18a4.08,4.08,0,0,0-3,1.24,2.57,2.57,0,0,0-2.51-1.24A4.17,4.17,0,0,0,52,12.25l-.16-.85H50v8.79h2.28V14a3.09,3.09,0,0,1,2-.84c.86,0,1.21.33,1.21,1.54v5.45h2.28V14.08a2.91,2.91,0,0,1,2-.88c.86,0,1.21.33,1.21,1.54v5.45h2.28V14.81C63.25,13,62.88,11.18,60.3,11.18Z"/>
    <path d="M69.85,11.18a3.42,3.42,0,0,0-2.58,1.22l-.17-1H65.24V23.27h2.28V19.49a3.31,3.31,0,0,0,2.33.93c2.38,0,4.12-2,4.12-4.62S72.23,11.18,69.85,11.18Zm-.26,7.2c-1.35,0-2.07-1-2.07-2.58s.72-2.59,2.07-2.59,2.06,1,2.06,2.59S70.83,18.38,69.59,18.38Z"/>
    <path d="M77.38,17.12V7.89H75.1v9.72c0,1.85.93,2.67,2.51,2.67h.63V18.12C77.65,18.12,77.38,17.84,77.38,17.12Z"/>
    <rect x="79.64" y="11.4" width="2.28" height="8.79"/>
    <path d="M80.78,7.25a1.45,1.45,0,1,0,1.44,1.46A1.43,1.43,0,0,0,80.8,7.25Z"/>
    <path d="M87.76,13.21a2.16,2.16,0,0,1,2,1.34l1.89-.93a4,4,0,0,0-4-2.44,4.29,4.29,0,0,0-4.31,4.27c0,.11,0,.23,0,.35a4.29,4.29,0,0,0,4,4.61h.35a4,4,0,0,0,4-2.44l-1.89-.93a2.13,2.13,0,0,1-2,1.33c-1.26,0-2-1-2-2.58S86.5,13.21,87.76,13.21Z"/>
    <path d="M96.43,11.18A6.82,6.82,0,0,0,93,12l.65,1.68A4.88,4.88,0,0,1,96,13.05c1.08,0,1.66.51,1.66,1.23v.92a2.8,2.8,0,0,0-2-.76c-1.88,0-3.42,1.13-3.42,3a3.14,3.14,0,0,0,3.27,3h0a3.66,3.66,0,0,0,2.53-1l.1.77H100v-5.5a3.19,3.19,0,0,0-2.83-3.53A3.05,3.05,0,0,0,96.43,11.18Zm-.38,7.45c-.81,0-1.46-.46-1.46-1.16A1.31,1.31,0,0,1,96,16.29h0c.84,0,1.45.48,1.45,1.18a1.3,1.3,0,0,1-1.4,1.17Z"/>
    <path d="M10.73,7.89H8.45v4.22a3.37,3.37,0,0,0-2.33-.93C3.73,11.18,2,13.11,2,15.8s1.76,4.62,4.15,4.62a3.36,3.36,0,0,0,2.57-1.23l.18,1h1.86ZM6.41,18.38c-1.24,0-2.07-1-2.07-2.58s.83-2.59,2.07-2.59,2.07,1,2.07,2.59S7.65,18.38,6.41,18.38Z"/>
    <path d="M16.26,11.18c-2.62,0-4.37,1.84-4.37,4.62v.26a4.45,4.45,0,0,0,4.54,4.36,4.12,4.12,0,0,0,3.94-2.35l-1.82-.95a2.47,2.47,0,0,1-2.12,1.3h0a2,2,0,0,1-2.15-1.83h6.13a5.48,5.48,0,0,0,.09-1.14,3.84,3.84,0,0,0,0-.48A4,4,0,0,0,16.26,11.18Zm-2,3.65A1.91,1.91,0,0,1,16.24,13h.16a1.79,1.79,0,0,1,1.75,1.83Z"/>
    <path d="M24.24,20.42a3.82,3.82,0,0,1-3.34-1.91l1.42-1.16a2.61,2.61,0,0,0,2.19,1.23c.59,0,1-.32,1-.79s-.56-.87-2.08-1.2a2.56,2.56,0,0,1-2.32-2.71c0-1.49,1.25-2.74,3.3-2.74a3.71,3.71,0,0,1,3.07,1.51L26.1,13.92a2.16,2.16,0,0,0-1.79-.86c-.7,0-1.15.3-1.15.82s.28.74,1.51,1c1.82.42,2.92,1.13,2.92,2.76S26.14,20.42,24.24,20.42Z"/>
  </g>
</svg>
