<svg xmlns="http://www.w3.org/2000/svg" xmlns:xlink="http://www.w3.org/1999/xlink" width="19" height="22" viewBox="0 0 19 22">
    <defs>
        <path id="prefix__a" d="M0 0.016L18.908 0.016 18.908 19.922 0 19.922z"/>
    </defs>
    <g fill="none" fill-rule="evenodd">
        <g transform="translate(0 1.963)">
            <mask id="prefix__b" fill="#fff">
                <use xlink:href="#prefix__a"/>
            </mask>
            <path fill="#00E58C" d="M15.76.066L2.122 2.676C.955 2.89 0 4.061 0 5.473v8.817c0 1.447.953 2.593 2.119 2.82l13.645 2.759c1.729.336 3.144-.979 3.144-2.863V3.059c0-2.081-1.417-3.312-3.148-2.993" mask="url(#prefix__b)"/>
        </g>
        <path fill="#000" d="M6.421 11.469c0 2.074 1.07 3.425 2.688 3.425 1.755 0 2.689-1.351 2.689-3.425s-.934-3.426-2.689-3.426c-1.617 0-2.688 1.352-2.688 3.426zm5.696 4.497c-.843.979-1.982 1.631-3.35 1.631-3.098 0-5.353-2.563-5.353-6.128 0-3.542 2.255-6.129 5.354-6.129 1.207 0 2.232.466 3.03 1.235V0h2.961v17.294h-2.414l-.228-1.328z"/>
    </g>
</svg>
