<svg xmlns="http://www.w3.org/2000/svg" width="102" height="30" viewBox="0 0 102 30">
    <g fill="none" fill-rule="evenodd">
        <path fill="#00E78E" d="M24.347.076L3.277 4.017C1.475 4.344 0 6.114 0 8.244v13.314c0 2.188 1.473 3.92 3.273 4.264l21.077 4.167c2.67.507 4.856-1.478 4.856-4.324V4.596c.004-3.143-2.185-4.998-4.86-4.52z" transform="translate(.939)"/>
        <path fill="#000" d="M33.04 15.332c0 1.568.775 2.59 2.044 2.59.845 0 1.497-.353 2.027-1.34l1.905.935c-.74 1.673-2.22 2.448-3.98 2.448-2.521 0-4.318-1.92-4.318-4.633 0-2.712 1.794-4.633 4.314-4.633 1.761 0 3.241.774 3.98 2.448l-1.901.934c-.53-.988-1.182-1.34-2.027-1.34-1.269.002-2.044 1.023-2.044 2.591z" transform="translate(.939)"/>
        <path fill="#000" fill-rule="nonzero" d="M48.768 15.332c0 2.696-1.867 4.633-4.585 4.633-2.719 0-4.562-1.937-4.562-4.633 0-2.678 1.85-4.633 4.562-4.633s4.585 1.955 4.585 4.633zm-2.326 0c0-1.528-.845-2.59-2.252-2.59-1.39 0-2.236 1.058-2.236 2.59 0 1.551.845 2.59 2.236 2.59 1.407 0 2.252-1.039 2.252-2.59z" transform="translate(.939)"/>
        <path fill="#000" d="M52.552 13.57v6.166h-2.29v-8.808h1.866l.161.845c.77-.69 1.767-1.072 2.8-1.074 1.357 0 2.115.492 2.52 1.25.783-.8 1.856-1.252 2.976-1.25 2.59 0 2.96 1.813 2.96 3.646v5.39h-2.29v-5.46c0-1.216-.353-1.55-1.215-1.55-.724 0-1.48.352-2.011.88.017.247.017.494.017.74v5.39h-2.287v-5.46c0-1.216-.353-1.55-1.216-1.55-.725 0-1.445.352-1.99.845z" transform="translate(.939)"/>
        <path fill="#000" fill-rule="nonzero" d="M67.838 19.032v3.788h-2.29V10.928h1.865l.176 1.003c.652-.74 1.528-1.232 2.59-1.232 2.396 0 4.14 1.938 4.14 4.633 0 2.679-1.744 4.633-4.14 4.633-.873.006-1.712-.329-2.341-.933zm4.157-3.7c0-1.568-.829-2.59-2.079-2.59-1.355 0-2.078 1.022-2.078 2.59 0 1.568.724 2.59 2.078 2.59 1.25 0 2.082-1.022 2.082-2.59h-.003z" transform="translate(.939)"/>
        <path fill="#000" d="M77.98 19.824c-1.586 0-2.52-.827-2.52-2.677V7.405h2.29v9.246c0 .724.265 1.005.865 1.005v2.132c-.211.024-.423.035-.636.036z" transform="translate(.939)"/>
        <path fill="#000" fill-rule="nonzero" d="M81.169 6.77c.797 0 1.445.644 1.448 1.442.003.797-.64 1.447-1.438 1.453-.797.006-1.45-.634-1.458-1.432-.006-.387.145-.76.417-1.035.272-.276.644-.43 1.03-.429zm-1.145 12.966v-8.808h2.291v8.808h-2.29z" transform="translate(.939)"/>
        <path fill="#000" d="M86.135 15.332c0 1.568.774 2.59 2.043 2.59.845 0 1.497-.353 2.026-1.34l1.905.935c-.739 1.673-2.22 2.448-3.98 2.448-2.521 0-4.318-1.92-4.318-4.633 0-2.712 1.794-4.633 4.315-4.633 1.76 0 3.242.774 3.98 2.448l-1.902.934c-.529-.988-1.18-1.34-2.026-1.34-1.269.002-2.043 1.023-2.043 2.591z" transform="translate(.939)"/>
        <path fill="#000" fill-rule="nonzero" d="M98.568 18.962c-.684.651-1.592 1.016-2.537 1.021-1.762 0-3.312-1.268-3.312-2.976 0-1.867 1.55-2.995 3.434-2.995.953 0 1.587.352 2.027.756v-.916c0-.724-.581-1.233-1.674-1.233-.84.001-1.665.22-2.396.634l-.652-1.689c1.127-.581 2.098-.862 3.436-.862 2.378 0 3.576 1.338 3.576 3.54v5.496h-1.796l-.106-.776zm-3.523-1.956c0 .704.651 1.162 1.461 1.162.829 0 1.448-.458 1.462-1.162 0-.705-.616-1.182-1.462-1.182-.81 0-1.461.477-1.461 1.182z" transform="translate(.939)"/>
        <path fill="#000" d="M24.358 19.965c-1.409 0-2.519-.633-3.364-1.92l1.426-1.162c.829.965 1.375 1.232 2.203 1.232.599 0 1.039-.316 1.039-.792 0-.6-.563-.863-2.096-1.198-1.448-.322-2.325-1.11-2.325-2.713 0-1.498 1.25-2.748 3.312-2.748 1.448 0 2.501.705 3.083 1.514l-1.411 1.27c-.3-.425-.935-.865-1.798-.865-.705 0-1.163.301-1.163.829 0 .458.282.74 1.515 1.022 1.832.423 2.943 1.126 2.943 2.765.002 1.692-1.46 2.766-3.364 2.766z" transform="translate(.939)"/>
        <path fill="#000" fill-rule="nonzero" d="M20.558 14.98c0-2.467-1.533-4.281-4.228-4.281-2.626 0-4.387 1.85-4.387 4.632 0 2.696 1.955 4.633 4.562 4.633 1.885 0 3.048-.775 3.964-2.36l-1.832-.953c-.563.935-1.391 1.304-2.132 1.304-1.233.019-2.011-.687-2.201-1.831h6.165c.063-.378.093-.761.089-1.144zm-6.203-.653c.196-1.144.847-1.831 1.957-1.831 1.145 0 1.832.687 1.92 1.831h-3.877zM8.511 7.405v4.227c-.63-.604-1.47-.94-2.342-.933-2.397 0-4.141 1.954-4.141 4.632 0 2.696 1.744 4.633 4.14 4.633 1.058 0 1.938-.492 2.59-1.233l.176 1.004h1.867V7.405h-2.29zM6.436 17.92c-1.25 0-2.08-1.021-2.08-2.589s.826-2.59 2.08-2.59c1.356 0 2.078 1.022 2.078 2.59 0 1.568-.725 2.59-2.078 2.59z" transform="translate(.939)"/>
    </g>
</svg>
